<svg xmlns="http://www.w3.org/2000/svg" xmlns:xlink="http://www.w3.org/1999/xlink" width="192.57" height="199.325" viewBox="0 0 192.57 199.325">
  <defs>
    <clipPath id="clip-path">
      <rect width="73.83" height="70.782" fill="none"/>
    </clipPath>
  </defs>
  <g id="Grupo_48" data-name="Grupo 48" transform="translate(-835.517 -2234.675)">
    <g id="Repetição_de_grade_20" data-name="Repetição de grade 20" transform="translate(954.257 2234.675)" opacity="0.6" clip-path="url(#clip-path)">
      <g transform="translate(-526 -1901)">
        <rect id="Retângulo_29" data-name="Retângulo 29" width="4" height="4" transform="translate(528 1903)" fill="#dfdfdf"/>
      </g>
      <g transform="translate(-517 -1901)">
        <rect id="Retângulo_29-2" data-name="Retângulo 29" width="4" height="4" transform="translate(528 1903)" fill="#dfdfdf"/>
      </g>
      <g transform="translate(-508 -1901)">
        <rect id="Retângulo_29-3" data-name="Retângulo 29" width="4" height="4" transform="translate(528 1903)" fill="#dfdfdf"/>
      </g>
      <g transform="translate(-499 -1901)">
        <rect id="Retângulo_29-4" data-name="Retângulo 29" width="4" height="4" transform="translate(528 1903)" fill="#dfdfdf"/>
      </g>
      <g transform="translate(-490 -1901)">
        <rect id="Retângulo_29-5" data-name="Retângulo 29" width="4" height="4" transform="translate(528 1903)" fill="#dfdfdf"/>
      </g>
      <g transform="translate(-481 -1901)">
        <rect id="Retângulo_29-6" data-name="Retângulo 29" width="4" height="4" transform="translate(528 1903)" fill="#dfdfdf"/>
      </g>
      <g transform="translate(-472 -1901)">
        <rect id="Retângulo_29-7" data-name="Retângulo 29" width="4" height="4" transform="translate(528 1903)" fill="#dfdfdf"/>
      </g>
      <g transform="translate(-463 -1901)">
        <rect id="Retângulo_29-8" data-name="Retângulo 29" width="4" height="4" transform="translate(528 1903)" fill="#dfdfdf"/>
      </g>
      <g transform="translate(-454 -1901)">
        <rect id="Retângulo_29-9" data-name="Retângulo 29" width="4" height="4" transform="translate(528 1903)" fill="#dfdfdf"/>
      </g>
      <g transform="translate(-526 -1892)">
        <rect id="Retângulo_29-10" data-name="Retângulo 29" width="4" height="4" transform="translate(528 1903)" fill="#dfdfdf"/>
      </g>
      <g transform="translate(-517 -1892)">
        <rect id="Retângulo_29-11" data-name="Retângulo 29" width="4" height="4" transform="translate(528 1903)" fill="#dfdfdf"/>
      </g>
      <g transform="translate(-508 -1892)">
        <rect id="Retângulo_29-12" data-name="Retângulo 29" width="4" height="4" transform="translate(528 1903)" fill="#dfdfdf"/>
      </g>
      <g transform="translate(-499 -1892)">
        <rect id="Retângulo_29-13" data-name="Retângulo 29" width="4" height="4" transform="translate(528 1903)" fill="#dfdfdf"/>
      </g>
      <g transform="translate(-490 -1892)">
        <rect id="Retângulo_29-14" data-name="Retângulo 29" width="4" height="4" transform="translate(528 1903)" fill="#dfdfdf"/>
      </g>
      <g transform="translate(-481 -1892)">
        <rect id="Retângulo_29-15" data-name="Retângulo 29" width="4" height="4" transform="translate(528 1903)" fill="#dfdfdf"/>
      </g>
      <g transform="translate(-472 -1892)">
        <rect id="Retângulo_29-16" data-name="Retângulo 29" width="4" height="4" transform="translate(528 1903)" fill="#dfdfdf"/>
      </g>
      <g transform="translate(-463 -1892)">
        <rect id="Retângulo_29-17" data-name="Retângulo 29" width="4" height="4" transform="translate(528 1903)" fill="#dfdfdf"/>
      </g>
      <g transform="translate(-454 -1892)">
        <rect id="Retângulo_29-18" data-name="Retângulo 29" width="4" height="4" transform="translate(528 1903)" fill="#dfdfdf"/>
      </g>
      <g transform="translate(-526 -1883)">
        <rect id="Retângulo_29-19" data-name="Retângulo 29" width="4" height="4" transform="translate(528 1903)" fill="#dfdfdf"/>
      </g>
      <g transform="translate(-517 -1883)">
        <rect id="Retângulo_29-20" data-name="Retângulo 29" width="4" height="4" transform="translate(528 1903)" fill="#dfdfdf"/>
      </g>
      <g transform="translate(-508 -1883)">
        <rect id="Retângulo_29-21" data-name="Retângulo 29" width="4" height="4" transform="translate(528 1903)" fill="#dfdfdf"/>
      </g>
      <g transform="translate(-499 -1883)">
        <rect id="Retângulo_29-22" data-name="Retângulo 29" width="4" height="4" transform="translate(528 1903)" fill="#dfdfdf"/>
      </g>
      <g transform="translate(-490 -1883)">
        <rect id="Retângulo_29-23" data-name="Retângulo 29" width="4" height="4" transform="translate(528 1903)" fill="#dfdfdf"/>
      </g>
      <g transform="translate(-481 -1883)">
        <rect id="Retângulo_29-24" data-name="Retângulo 29" width="4" height="4" transform="translate(528 1903)" fill="#dfdfdf"/>
      </g>
      <g transform="translate(-472 -1883)">
        <rect id="Retângulo_29-25" data-name="Retângulo 29" width="4" height="4" transform="translate(528 1903)" fill="#dfdfdf"/>
      </g>
      <g transform="translate(-463 -1883)">
        <rect id="Retângulo_29-26" data-name="Retângulo 29" width="4" height="4" transform="translate(528 1903)" fill="#dfdfdf"/>
      </g>
      <g transform="translate(-454 -1883)">
        <rect id="Retângulo_29-27" data-name="Retângulo 29" width="4" height="4" transform="translate(528 1903)" fill="#dfdfdf"/>
      </g>
      <g transform="translate(-526 -1874)">
        <rect id="Retângulo_29-28" data-name="Retângulo 29" width="4" height="4" transform="translate(528 1903)" fill="#dfdfdf"/>
      </g>
      <g transform="translate(-517 -1874)">
        <rect id="Retângulo_29-29" data-name="Retângulo 29" width="4" height="4" transform="translate(528 1903)" fill="#dfdfdf"/>
      </g>
      <g transform="translate(-508 -1874)">
        <rect id="Retângulo_29-30" data-name="Retângulo 29" width="4" height="4" transform="translate(528 1903)" fill="#dfdfdf"/>
      </g>
      <g transform="translate(-499 -1874)">
        <rect id="Retângulo_29-31" data-name="Retângulo 29" width="4" height="4" transform="translate(528 1903)" fill="#dfdfdf"/>
      </g>
      <g transform="translate(-490 -1874)">
        <rect id="Retângulo_29-32" data-name="Retângulo 29" width="4" height="4" transform="translate(528 1903)" fill="#dfdfdf"/>
      </g>
      <g transform="translate(-481 -1874)">
        <rect id="Retângulo_29-33" data-name="Retângulo 29" width="4" height="4" transform="translate(528 1903)" fill="#dfdfdf"/>
      </g>
      <g transform="translate(-472 -1874)">
        <rect id="Retângulo_29-34" data-name="Retângulo 29" width="4" height="4" transform="translate(528 1903)" fill="#dfdfdf"/>
      </g>
      <g transform="translate(-463 -1874)">
        <rect id="Retângulo_29-35" data-name="Retângulo 29" width="4" height="4" transform="translate(528 1903)" fill="#dfdfdf"/>
      </g>
      <g transform="translate(-454 -1874)">
        <rect id="Retângulo_29-36" data-name="Retângulo 29" width="4" height="4" transform="translate(528 1903)" fill="#dfdfdf"/>
      </g>
      <g transform="translate(-526 -1865)">
        <rect id="Retângulo_29-37" data-name="Retângulo 29" width="4" height="4" transform="translate(528 1903)" fill="#dfdfdf"/>
      </g>
      <g transform="translate(-517 -1865)">
        <rect id="Retângulo_29-38" data-name="Retângulo 29" width="4" height="4" transform="translate(528 1903)" fill="#dfdfdf"/>
      </g>
      <g transform="translate(-508 -1865)">
        <rect id="Retângulo_29-39" data-name="Retângulo 29" width="4" height="4" transform="translate(528 1903)" fill="#dfdfdf"/>
      </g>
      <g transform="translate(-499 -1865)">
        <rect id="Retângulo_29-40" data-name="Retângulo 29" width="4" height="4" transform="translate(528 1903)" fill="#dfdfdf"/>
      </g>
      <g transform="translate(-490 -1865)">
        <rect id="Retângulo_29-41" data-name="Retângulo 29" width="4" height="4" transform="translate(528 1903)" fill="#dfdfdf"/>
      </g>
      <g transform="translate(-481 -1865)">
        <rect id="Retângulo_29-42" data-name="Retângulo 29" width="4" height="4" transform="translate(528 1903)" fill="#dfdfdf"/>
      </g>
      <g transform="translate(-472 -1865)">
        <rect id="Retângulo_29-43" data-name="Retângulo 29" width="4" height="4" transform="translate(528 1903)" fill="#dfdfdf"/>
      </g>
      <g transform="translate(-463 -1865)">
        <rect id="Retângulo_29-44" data-name="Retângulo 29" width="4" height="4" transform="translate(528 1903)" fill="#dfdfdf"/>
      </g>
      <g transform="translate(-454 -1865)">
        <rect id="Retângulo_29-45" data-name="Retângulo 29" width="4" height="4" transform="translate(528 1903)" fill="#dfdfdf"/>
      </g>
      <g transform="translate(-526 -1856)">
        <rect id="Retângulo_29-46" data-name="Retângulo 29" width="4" height="4" transform="translate(528 1903)" fill="#dfdfdf"/>
      </g>
      <g transform="translate(-517 -1856)">
        <rect id="Retângulo_29-47" data-name="Retângulo 29" width="4" height="4" transform="translate(528 1903)" fill="#dfdfdf"/>
      </g>
      <g transform="translate(-508 -1856)">
        <rect id="Retângulo_29-48" data-name="Retângulo 29" width="4" height="4" transform="translate(528 1903)" fill="#dfdfdf"/>
      </g>
      <g transform="translate(-499 -1856)">
        <rect id="Retângulo_29-49" data-name="Retângulo 29" width="4" height="4" transform="translate(528 1903)" fill="#dfdfdf"/>
      </g>
      <g transform="translate(-490 -1856)">
        <rect id="Retângulo_29-50" data-name="Retângulo 29" width="4" height="4" transform="translate(528 1903)" fill="#dfdfdf"/>
      </g>
      <g transform="translate(-481 -1856)">
        <rect id="Retângulo_29-51" data-name="Retângulo 29" width="4" height="4" transform="translate(528 1903)" fill="#dfdfdf"/>
      </g>
      <g transform="translate(-472 -1856)">
        <rect id="Retângulo_29-52" data-name="Retângulo 29" width="4" height="4" transform="translate(528 1903)" fill="#dfdfdf"/>
      </g>
      <g transform="translate(-463 -1856)">
        <rect id="Retângulo_29-53" data-name="Retângulo 29" width="4" height="4" transform="translate(528 1903)" fill="#dfdfdf"/>
      </g>
      <g transform="translate(-454 -1856)">
        <rect id="Retângulo_29-54" data-name="Retângulo 29" width="4" height="4" transform="translate(528 1903)" fill="#dfdfdf"/>
      </g>
      <g transform="translate(-526 -1847)">
        <rect id="Retângulo_29-55" data-name="Retângulo 29" width="4" height="4" transform="translate(528 1903)" fill="#dfdfdf"/>
      </g>
      <g transform="translate(-517 -1847)">
        <rect id="Retângulo_29-56" data-name="Retângulo 29" width="4" height="4" transform="translate(528 1903)" fill="#dfdfdf"/>
      </g>
      <g transform="translate(-508 -1847)">
        <rect id="Retângulo_29-57" data-name="Retângulo 29" width="4" height="4" transform="translate(528 1903)" fill="#dfdfdf"/>
      </g>
      <g transform="translate(-499 -1847)">
        <rect id="Retângulo_29-58" data-name="Retângulo 29" width="4" height="4" transform="translate(528 1903)" fill="#dfdfdf"/>
      </g>
      <g transform="translate(-490 -1847)">
        <rect id="Retângulo_29-59" data-name="Retângulo 29" width="4" height="4" transform="translate(528 1903)" fill="#dfdfdf"/>
      </g>
      <g transform="translate(-481 -1847)">
        <rect id="Retângulo_29-60" data-name="Retângulo 29" width="4" height="4" transform="translate(528 1903)" fill="#dfdfdf"/>
      </g>
      <g transform="translate(-472 -1847)">
        <rect id="Retângulo_29-61" data-name="Retângulo 29" width="4" height="4" transform="translate(528 1903)" fill="#dfdfdf"/>
      </g>
      <g transform="translate(-463 -1847)">
        <rect id="Retângulo_29-62" data-name="Retângulo 29" width="4" height="4" transform="translate(528 1903)" fill="#dfdfdf"/>
      </g>
      <g transform="translate(-454 -1847)">
        <rect id="Retângulo_29-63" data-name="Retângulo 29" width="4" height="4" transform="translate(528 1903)" fill="#dfdfdf"/>
      </g>
      <g transform="translate(-526 -1838)">
        <rect id="Retângulo_29-64" data-name="Retângulo 29" width="4" height="4" transform="translate(528 1903)" fill="#dfdfdf"/>
      </g>
      <g transform="translate(-517 -1838)">
        <rect id="Retângulo_29-65" data-name="Retângulo 29" width="4" height="4" transform="translate(528 1903)" fill="#dfdfdf"/>
      </g>
      <g transform="translate(-508 -1838)">
        <rect id="Retângulo_29-66" data-name="Retângulo 29" width="4" height="4" transform="translate(528 1903)" fill="#dfdfdf"/>
      </g>
      <g transform="translate(-499 -1838)">
        <rect id="Retângulo_29-67" data-name="Retângulo 29" width="4" height="4" transform="translate(528 1903)" fill="#dfdfdf"/>
      </g>
      <g transform="translate(-490 -1838)">
        <rect id="Retângulo_29-68" data-name="Retângulo 29" width="4" height="4" transform="translate(528 1903)" fill="#dfdfdf"/>
      </g>
      <g transform="translate(-481 -1838)">
        <rect id="Retângulo_29-69" data-name="Retângulo 29" width="4" height="4" transform="translate(528 1903)" fill="#dfdfdf"/>
      </g>
      <g transform="translate(-472 -1838)">
        <rect id="Retângulo_29-70" data-name="Retângulo 29" width="4" height="4" transform="translate(528 1903)" fill="#dfdfdf"/>
      </g>
      <g transform="translate(-463 -1838)">
        <rect id="Retângulo_29-71" data-name="Retângulo 29" width="4" height="4" transform="translate(528 1903)" fill="#dfdfdf"/>
      </g>
      <g transform="translate(-454 -1838)">
        <rect id="Retângulo_29-72" data-name="Retângulo 29" width="4" height="4" transform="translate(528 1903)" fill="#dfdfdf"/>
      </g>
    </g>
    <rect id="Retângulo_39" data-name="Retângulo 39" width="86.576" height="85.877" rx="15" transform="translate(880.517 2303.123)" fill="#5d5086" opacity="0.18"/>
    <g id="Retângulo_38" data-name="Retângulo 38" transform="translate(941.302 2276.126)" fill="#fff" stroke="#707070" stroke-width="1">
      <rect width="61.256" height="70.445" stroke="none"/>
      <rect x="0.5" y="0.5" width="60.256" height="69.445" fill="none"/>
    </g>
    <rect id="Retângulo_37" data-name="Retângulo 37" width="67.382" height="113.324" rx="15" transform="translate(890 2253.92)" fill="#fff"/>
    <g id="Grupo_5" data-name="Grupo 5" transform="translate(890.766 2253.92)">
      <path id="Caminho_30" data-name="Caminho 30" d="M96.394,108.466H85.419a6.358,6.358,0,0,1-1.528-.161,2.313,2.313,0,0,1-1.286-3.417,6,6,0,0,1,.925-1.085c3.98-3.98,7.96-8,11.98-11.98a2.746,2.746,0,0,0,.884-2.211q-.06-17.487-.04-34.974a7.149,7.149,0,0,1,5.226-7.316A8.845,8.845,0,0,1,104.072,47h50.813c4.7,0,7.638,3.015,7.638,7.718v60.3c0,4.623-2.975,7.638-7.6,7.638H104.032c-4.623,0-7.638-3.055-7.678-7.718C96.394,112.808,96.394,110.677,96.394,108.466ZM90.605,103.4l.121.241H98.2c2.01,0,2.975.965,2.975,2.975v7.96c0,2.533.683,3.216,3.216,3.216h50.491c2.09,0,2.894-.844,2.894-2.975v-48.8h-56.6v1.166c0,7.879,0,15.8.04,23.678a4.387,4.387,0,0,1-1.447,3.417C96.716,97.29,93.66,100.346,90.605,103.4ZM157.78,61.07c0-2.251.04-4.382,0-6.553-.04-1.97-.884-2.774-2.854-2.774H103.59a2.28,2.28,0,0,0-2.372,2.372c-.04,1.367,0,2.734,0,4.1V61.07Z" transform="translate(-49.199 -28.106)" fill="#df5959"/>
      <path id="Caminho_29" data-name="Caminho 29" d="M65.084,0c1.648.6,3.3,1.246,4.261,2.774a8.4,8.4,0,0,1,1.407,3.538c.2,2.573.08,5.146.08,7.8H66.17c-.04-.362-.04-.764-.08-1.166,0-1.809,0-3.618-.04-5.427-.04-1.93-.844-2.693-2.774-2.774h-.563q-27.316,0-54.672.04a8.738,8.738,0,0,0-1.447.08A1.826,1.826,0,0,0,4.864,6.593c-.08,4.06-.04,8.08-.04,12.261H42.411v4.784H4.824V89.687H42.451v4.824H4.824c-.04.4-.08.724-.08,1.045v9.97c0,2.332.8,3.1,3.136,3.1H62.23c.4,0,.8,0,1.206-.04,1.769-.08,2.573-.844,2.613-2.613.04-2.211,0-4.422,0-6.713h4.784c0,1.126.04,2.291,0,3.457a30.693,30.693,0,0,1-.442,5.789,6.644,6.644,0,0,1-6.231,4.824c-.442.04-.884,0-1.327,0H8.04c-4.422,0-6.432-1.407-7.919-5.588A.555.555,0,0,0,0,107.576Q0,56.682,0,5.749A30.379,30.379,0,0,1,1.367,2.935,8,8,0,0,1,5.749,0Z" transform="translate(0)" fill="#5d5086"/>
      <path id="Caminho_31" data-name="Caminho 31" d="M34.895,70.467v4.7H31.036c-2.372,0-3.176.844-3.176,3.176v3.819H23.317c-1.166-3.5-.04-8.321,2.573-10.211a8.767,8.767,0,0,1,3.7-1.487A46.694,46.694,0,0,1,34.895,70.467Z" transform="translate(-13.669 -42.086)" fill="#5d5086"/>
      <path id="Caminho_32" data-name="Caminho 32" d="M70.6,251.523V246.9H84.67v4.623Z" transform="translate(-42.219 -147.646)" fill="#5d5086"/>
      <path id="Caminho_33" data-name="Caminho 33" d="M84.77,23.7v4.583H70.7V23.7Z" transform="translate(-42.278 -14.173)" fill="#5d5086"/>
      <path id="Caminho_34" data-name="Caminho 34" d="M69.3,75.223H64.6V70.6h4.7Z" transform="translate(-38.631 -42.219)" fill="#5d5086"/>
      <path id="Caminho_35" data-name="Caminho 35" d="M226.906,117.559v8.723c0,2.211-.884,3.055-3.1,3.055H208.776c-2.251,0-3.176-.925-3.176-3.136V108.715c0-2.131.884-3.015,3.015-3.015h15.4c2.01,0,2.894.844,2.935,2.894C226.906,111.609,226.906,114.584,226.906,117.559Zm-16.482,6.914h11.658V110.524H210.424Z" transform="translate(-122.948 -63.208)" fill="#df5959"/>
      <path id="Caminho_36" data-name="Caminho 36" d="M140.94,117.559v-9.085c0-1.889.884-2.774,2.774-2.774h15.718a2.4,2.4,0,0,1,2.734,2.693v18.251a2.4,2.4,0,0,1-2.573,2.693q-8.08.06-16.16,0c-1.648,0-2.533-1.005-2.533-2.734C140.94,123.629,140.94,120.574,140.94,117.559Zm4.864-7.035v13.949h11.578V110.524Z" transform="translate(-84.258 -63.208)" fill="#5d5086"/>
      <path id="Caminho_37" data-name="Caminho 37" d="M152.8,180.983V176.4h42.451v4.583Z" transform="translate(-91.374 -105.487)" fill="#5d5086"/>
      <path id="Caminho_38" data-name="Caminho 38" d="M141.1,204.523V199.9h37.748v4.623Z" transform="translate(-84.377 -119.54)" fill="#df5959"/>
      <path id="Caminho_39" data-name="Caminho 39" d="M246.8,204.483V199.9h4.583v4.583Z" transform="translate(-147.586 -119.54)" fill="#df5959"/>
    </g>
  </g>
</svg>
