<svg xmlns="http://www.w3.org/2000/svg" xmlns:xlink="http://www.w3.org/1999/xlink" width="213.454" height="192.776" viewBox="0 0 213.454 192.776">
  <defs>
    <clipPath id="clip-path">
      <rect width="73.83" height="70.782" fill="none"/>
    </clipPath>
  </defs>
  <g id="Grupo_49" data-name="Grupo 49" transform="translate(-1336 -2231.675)">
    <g id="Grupo_47" data-name="Grupo 47">
      <g id="Repetição_de_grade_21" data-name="Repetição de grade 21" transform="translate(1460.257 2231.675)" opacity="0.6" clip-path="url(#clip-path)">
        <g transform="translate(-526 -1901)">
          <rect id="Retângulo_29" data-name="Retângulo 29" width="4" height="4" transform="translate(528 1903)" fill="#dfdfdf"/>
        </g>
        <g transform="translate(-517 -1901)">
          <rect id="Retângulo_29-2" data-name="Retângulo 29" width="4" height="4" transform="translate(528 1903)" fill="#dfdfdf"/>
        </g>
        <g transform="translate(-508 -1901)">
          <rect id="Retângulo_29-3" data-name="Retângulo 29" width="4" height="4" transform="translate(528 1903)" fill="#dfdfdf"/>
        </g>
        <g transform="translate(-499 -1901)">
          <rect id="Retângulo_29-4" data-name="Retângulo 29" width="4" height="4" transform="translate(528 1903)" fill="#dfdfdf"/>
        </g>
        <g transform="translate(-490 -1901)">
          <rect id="Retângulo_29-5" data-name="Retângulo 29" width="4" height="4" transform="translate(528 1903)" fill="#dfdfdf"/>
        </g>
        <g transform="translate(-481 -1901)">
          <rect id="Retângulo_29-6" data-name="Retângulo 29" width="4" height="4" transform="translate(528 1903)" fill="#dfdfdf"/>
        </g>
        <g transform="translate(-472 -1901)">
          <rect id="Retângulo_29-7" data-name="Retângulo 29" width="4" height="4" transform="translate(528 1903)" fill="#dfdfdf"/>
        </g>
        <g transform="translate(-463 -1901)">
          <rect id="Retângulo_29-8" data-name="Retângulo 29" width="4" height="4" transform="translate(528 1903)" fill="#dfdfdf"/>
        </g>
        <g transform="translate(-454 -1901)">
          <rect id="Retângulo_29-9" data-name="Retângulo 29" width="4" height="4" transform="translate(528 1903)" fill="#dfdfdf"/>
        </g>
        <g transform="translate(-526 -1892)">
          <rect id="Retângulo_29-10" data-name="Retângulo 29" width="4" height="4" transform="translate(528 1903)" fill="#dfdfdf"/>
        </g>
        <g transform="translate(-517 -1892)">
          <rect id="Retângulo_29-11" data-name="Retângulo 29" width="4" height="4" transform="translate(528 1903)" fill="#dfdfdf"/>
        </g>
        <g transform="translate(-508 -1892)">
          <rect id="Retângulo_29-12" data-name="Retângulo 29" width="4" height="4" transform="translate(528 1903)" fill="#dfdfdf"/>
        </g>
        <g transform="translate(-499 -1892)">
          <rect id="Retângulo_29-13" data-name="Retângulo 29" width="4" height="4" transform="translate(528 1903)" fill="#dfdfdf"/>
        </g>
        <g transform="translate(-490 -1892)">
          <rect id="Retângulo_29-14" data-name="Retângulo 29" width="4" height="4" transform="translate(528 1903)" fill="#dfdfdf"/>
        </g>
        <g transform="translate(-481 -1892)">
          <rect id="Retângulo_29-15" data-name="Retângulo 29" width="4" height="4" transform="translate(528 1903)" fill="#dfdfdf"/>
        </g>
        <g transform="translate(-472 -1892)">
          <rect id="Retângulo_29-16" data-name="Retângulo 29" width="4" height="4" transform="translate(528 1903)" fill="#dfdfdf"/>
        </g>
        <g transform="translate(-463 -1892)">
          <rect id="Retângulo_29-17" data-name="Retângulo 29" width="4" height="4" transform="translate(528 1903)" fill="#dfdfdf"/>
        </g>
        <g transform="translate(-454 -1892)">
          <rect id="Retângulo_29-18" data-name="Retângulo 29" width="4" height="4" transform="translate(528 1903)" fill="#dfdfdf"/>
        </g>
        <g transform="translate(-526 -1883)">
          <rect id="Retângulo_29-19" data-name="Retângulo 29" width="4" height="4" transform="translate(528 1903)" fill="#dfdfdf"/>
        </g>
        <g transform="translate(-517 -1883)">
          <rect id="Retângulo_29-20" data-name="Retângulo 29" width="4" height="4" transform="translate(528 1903)" fill="#dfdfdf"/>
        </g>
        <g transform="translate(-508 -1883)">
          <rect id="Retângulo_29-21" data-name="Retângulo 29" width="4" height="4" transform="translate(528 1903)" fill="#dfdfdf"/>
        </g>
        <g transform="translate(-499 -1883)">
          <rect id="Retângulo_29-22" data-name="Retângulo 29" width="4" height="4" transform="translate(528 1903)" fill="#dfdfdf"/>
        </g>
        <g transform="translate(-490 -1883)">
          <rect id="Retângulo_29-23" data-name="Retângulo 29" width="4" height="4" transform="translate(528 1903)" fill="#dfdfdf"/>
        </g>
        <g transform="translate(-481 -1883)">
          <rect id="Retângulo_29-24" data-name="Retângulo 29" width="4" height="4" transform="translate(528 1903)" fill="#dfdfdf"/>
        </g>
        <g transform="translate(-472 -1883)">
          <rect id="Retângulo_29-25" data-name="Retângulo 29" width="4" height="4" transform="translate(528 1903)" fill="#dfdfdf"/>
        </g>
        <g transform="translate(-463 -1883)">
          <rect id="Retângulo_29-26" data-name="Retângulo 29" width="4" height="4" transform="translate(528 1903)" fill="#dfdfdf"/>
        </g>
        <g transform="translate(-454 -1883)">
          <rect id="Retângulo_29-27" data-name="Retângulo 29" width="4" height="4" transform="translate(528 1903)" fill="#dfdfdf"/>
        </g>
        <g transform="translate(-526 -1874)">
          <rect id="Retângulo_29-28" data-name="Retângulo 29" width="4" height="4" transform="translate(528 1903)" fill="#dfdfdf"/>
        </g>
        <g transform="translate(-517 -1874)">
          <rect id="Retângulo_29-29" data-name="Retângulo 29" width="4" height="4" transform="translate(528 1903)" fill="#dfdfdf"/>
        </g>
        <g transform="translate(-508 -1874)">
          <rect id="Retângulo_29-30" data-name="Retângulo 29" width="4" height="4" transform="translate(528 1903)" fill="#dfdfdf"/>
        </g>
        <g transform="translate(-499 -1874)">
          <rect id="Retângulo_29-31" data-name="Retângulo 29" width="4" height="4" transform="translate(528 1903)" fill="#dfdfdf"/>
        </g>
        <g transform="translate(-490 -1874)">
          <rect id="Retângulo_29-32" data-name="Retângulo 29" width="4" height="4" transform="translate(528 1903)" fill="#dfdfdf"/>
        </g>
        <g transform="translate(-481 -1874)">
          <rect id="Retângulo_29-33" data-name="Retângulo 29" width="4" height="4" transform="translate(528 1903)" fill="#dfdfdf"/>
        </g>
        <g transform="translate(-472 -1874)">
          <rect id="Retângulo_29-34" data-name="Retângulo 29" width="4" height="4" transform="translate(528 1903)" fill="#dfdfdf"/>
        </g>
        <g transform="translate(-463 -1874)">
          <rect id="Retângulo_29-35" data-name="Retângulo 29" width="4" height="4" transform="translate(528 1903)" fill="#dfdfdf"/>
        </g>
        <g transform="translate(-454 -1874)">
          <rect id="Retângulo_29-36" data-name="Retângulo 29" width="4" height="4" transform="translate(528 1903)" fill="#dfdfdf"/>
        </g>
        <g transform="translate(-526 -1865)">
          <rect id="Retângulo_29-37" data-name="Retângulo 29" width="4" height="4" transform="translate(528 1903)" fill="#dfdfdf"/>
        </g>
        <g transform="translate(-517 -1865)">
          <rect id="Retângulo_29-38" data-name="Retângulo 29" width="4" height="4" transform="translate(528 1903)" fill="#dfdfdf"/>
        </g>
        <g transform="translate(-508 -1865)">
          <rect id="Retângulo_29-39" data-name="Retângulo 29" width="4" height="4" transform="translate(528 1903)" fill="#dfdfdf"/>
        </g>
        <g transform="translate(-499 -1865)">
          <rect id="Retângulo_29-40" data-name="Retângulo 29" width="4" height="4" transform="translate(528 1903)" fill="#dfdfdf"/>
        </g>
        <g transform="translate(-490 -1865)">
          <rect id="Retângulo_29-41" data-name="Retângulo 29" width="4" height="4" transform="translate(528 1903)" fill="#dfdfdf"/>
        </g>
        <g transform="translate(-481 -1865)">
          <rect id="Retângulo_29-42" data-name="Retângulo 29" width="4" height="4" transform="translate(528 1903)" fill="#dfdfdf"/>
        </g>
        <g transform="translate(-472 -1865)">
          <rect id="Retângulo_29-43" data-name="Retângulo 29" width="4" height="4" transform="translate(528 1903)" fill="#dfdfdf"/>
        </g>
        <g transform="translate(-463 -1865)">
          <rect id="Retângulo_29-44" data-name="Retângulo 29" width="4" height="4" transform="translate(528 1903)" fill="#dfdfdf"/>
        </g>
        <g transform="translate(-454 -1865)">
          <rect id="Retângulo_29-45" data-name="Retângulo 29" width="4" height="4" transform="translate(528 1903)" fill="#dfdfdf"/>
        </g>
        <g transform="translate(-526 -1856)">
          <rect id="Retângulo_29-46" data-name="Retângulo 29" width="4" height="4" transform="translate(528 1903)" fill="#dfdfdf"/>
        </g>
        <g transform="translate(-517 -1856)">
          <rect id="Retângulo_29-47" data-name="Retângulo 29" width="4" height="4" transform="translate(528 1903)" fill="#dfdfdf"/>
        </g>
        <g transform="translate(-508 -1856)">
          <rect id="Retângulo_29-48" data-name="Retângulo 29" width="4" height="4" transform="translate(528 1903)" fill="#dfdfdf"/>
        </g>
        <g transform="translate(-499 -1856)">
          <rect id="Retângulo_29-49" data-name="Retângulo 29" width="4" height="4" transform="translate(528 1903)" fill="#dfdfdf"/>
        </g>
        <g transform="translate(-490 -1856)">
          <rect id="Retângulo_29-50" data-name="Retângulo 29" width="4" height="4" transform="translate(528 1903)" fill="#dfdfdf"/>
        </g>
        <g transform="translate(-481 -1856)">
          <rect id="Retângulo_29-51" data-name="Retângulo 29" width="4" height="4" transform="translate(528 1903)" fill="#dfdfdf"/>
        </g>
        <g transform="translate(-472 -1856)">
          <rect id="Retângulo_29-52" data-name="Retângulo 29" width="4" height="4" transform="translate(528 1903)" fill="#dfdfdf"/>
        </g>
        <g transform="translate(-463 -1856)">
          <rect id="Retângulo_29-53" data-name="Retângulo 29" width="4" height="4" transform="translate(528 1903)" fill="#dfdfdf"/>
        </g>
        <g transform="translate(-454 -1856)">
          <rect id="Retângulo_29-54" data-name="Retângulo 29" width="4" height="4" transform="translate(528 1903)" fill="#dfdfdf"/>
        </g>
        <g transform="translate(-526 -1847)">
          <rect id="Retângulo_29-55" data-name="Retângulo 29" width="4" height="4" transform="translate(528 1903)" fill="#dfdfdf"/>
        </g>
        <g transform="translate(-517 -1847)">
          <rect id="Retângulo_29-56" data-name="Retângulo 29" width="4" height="4" transform="translate(528 1903)" fill="#dfdfdf"/>
        </g>
        <g transform="translate(-508 -1847)">
          <rect id="Retângulo_29-57" data-name="Retângulo 29" width="4" height="4" transform="translate(528 1903)" fill="#dfdfdf"/>
        </g>
        <g transform="translate(-499 -1847)">
          <rect id="Retângulo_29-58" data-name="Retângulo 29" width="4" height="4" transform="translate(528 1903)" fill="#dfdfdf"/>
        </g>
        <g transform="translate(-490 -1847)">
          <rect id="Retângulo_29-59" data-name="Retângulo 29" width="4" height="4" transform="translate(528 1903)" fill="#dfdfdf"/>
        </g>
        <g transform="translate(-481 -1847)">
          <rect id="Retângulo_29-60" data-name="Retângulo 29" width="4" height="4" transform="translate(528 1903)" fill="#dfdfdf"/>
        </g>
        <g transform="translate(-472 -1847)">
          <rect id="Retângulo_29-61" data-name="Retângulo 29" width="4" height="4" transform="translate(528 1903)" fill="#dfdfdf"/>
        </g>
        <g transform="translate(-463 -1847)">
          <rect id="Retângulo_29-62" data-name="Retângulo 29" width="4" height="4" transform="translate(528 1903)" fill="#dfdfdf"/>
        </g>
        <g transform="translate(-454 -1847)">
          <rect id="Retângulo_29-63" data-name="Retângulo 29" width="4" height="4" transform="translate(528 1903)" fill="#dfdfdf"/>
        </g>
        <g transform="translate(-526 -1838)">
          <rect id="Retângulo_29-64" data-name="Retângulo 29" width="4" height="4" transform="translate(528 1903)" fill="#dfdfdf"/>
        </g>
        <g transform="translate(-517 -1838)">
          <rect id="Retângulo_29-65" data-name="Retângulo 29" width="4" height="4" transform="translate(528 1903)" fill="#dfdfdf"/>
        </g>
        <g transform="translate(-508 -1838)">
          <rect id="Retângulo_29-66" data-name="Retângulo 29" width="4" height="4" transform="translate(528 1903)" fill="#dfdfdf"/>
        </g>
        <g transform="translate(-499 -1838)">
          <rect id="Retângulo_29-67" data-name="Retângulo 29" width="4" height="4" transform="translate(528 1903)" fill="#dfdfdf"/>
        </g>
        <g transform="translate(-490 -1838)">
          <rect id="Retângulo_29-68" data-name="Retângulo 29" width="4" height="4" transform="translate(528 1903)" fill="#dfdfdf"/>
        </g>
        <g transform="translate(-481 -1838)">
          <rect id="Retângulo_29-69" data-name="Retângulo 29" width="4" height="4" transform="translate(528 1903)" fill="#dfdfdf"/>
        </g>
        <g transform="translate(-472 -1838)">
          <rect id="Retângulo_29-70" data-name="Retângulo 29" width="4" height="4" transform="translate(528 1903)" fill="#dfdfdf"/>
        </g>
        <g transform="translate(-463 -1838)">
          <rect id="Retângulo_29-71" data-name="Retângulo 29" width="4" height="4" transform="translate(528 1903)" fill="#dfdfdf"/>
        </g>
        <g transform="translate(-454 -1838)">
          <rect id="Retângulo_29-72" data-name="Retângulo 29" width="4" height="4" transform="translate(528 1903)" fill="#dfdfdf"/>
        </g>
      </g>
      <path id="Caminho_56" data-name="Caminho 56" d="M0,0H123.454V69.586c0,6.626-6.052,12-13.517,12H16.22C7.262,81.584,0,75.138,0,67.187Z" transform="translate(1381 2297.867)" fill="#5d5086" opacity="0.15"/>
      <path id="Retângulo_40" data-name="Retângulo 40" d="M0,0H109.578a0,0,0,0,1,0,0V87.38a15,15,0,0,1-15,15H18a18,18,0,0,1-18-18V0A0,0,0,0,1,0,0Z" transform="translate(1393.168 2258.675)" fill="#fff"/>
      <g id="Grupo_7" data-name="Grupo 7" transform="translate(1412.364 2301.066)">
        <path id="Caminho_53" data-name="Caminho 53" d="M71.29,33.921a2.226,2.226,0,0,1-1.789-.877,2.156,2.156,0,0,1-.351-1.894L77.533,1.579A2.264,2.264,0,0,1,79.673,0a2.226,2.226,0,0,1,1.789.877,2.156,2.156,0,0,1,.351,1.894L73.394,32.307A2.179,2.179,0,0,1,71.29,33.921Z" transform="translate(-44.876)" fill="#df5959"/>
        <path id="Caminho_54" data-name="Caminho 54" d="M132.33,37.256a2.174,2.174,0,0,1-1.4-3.824l8.945-7.647a2.8,2.8,0,0,0,.982-2.14,2.751,2.751,0,0,0-.982-2.14l-8.98-7.682a2.174,2.174,0,0,1,1.4-3.824,2.053,2.053,0,0,1,1.4.526l8.98,7.682a7.2,7.2,0,0,1,2.526,5.437,7.087,7.087,0,0,1-2.526,5.437l-8.98,7.682A2.179,2.179,0,0,1,132.33,37.256Z" transform="translate(-84.518 -6.492)" fill="#df5959"/>
        <path id="Caminho_55" data-name="Caminho 55" d="M13.149,37.256a2.276,2.276,0,0,1-1.4-.491L2.591,29.083l-.035-.035h0a7.175,7.175,0,0,1,.035-10.839l9.191-7.717a2.2,2.2,0,0,1,1.4-.491,2.115,2.115,0,0,1,1.649.772,2.17,2.17,0,0,1-.281,3.052L5.362,21.506a2.822,2.822,0,0,0,0,4.28l9.155,7.682a2.18,2.18,0,0,1,.772,1.473,2.354,2.354,0,0,1-.491,1.579A2.258,2.258,0,0,1,13.149,37.256Z" transform="translate(-0.1 -6.492)" fill="#df5959"/>
      </g>
      <path id="Caminho_52" data-name="Caminho 52" d="M114.921,70.153a2.772,2.772,0,0,0,2.763-2.763V12.278A12.316,12.316,0,0,0,105.407,0H12.278A12.316,12.316,0,0,0,0,12.278V91.156a17.042,17.042,0,0,0,17.015,17.015H100.67a17.042,17.042,0,0,0,17.015-17.015,2.763,2.763,0,1,0-5.527,0,11.5,11.5,0,0,1-11.488,11.488H17.015A11.5,11.5,0,0,1,5.527,91.156V24.792H112.118v42.6A2.78,2.78,0,0,0,114.921,70.153ZM5.566,19.226V12.278a6.706,6.706,0,0,1,6.711-6.711H75.522l-.947,2.645a11.975,11.975,0,0,0-.711,4.106,12.389,12.389,0,0,0,.79,4.3L75.64,19.3H5.566Zm80.615-.237a6.711,6.711,0,1,1,6.711-6.711A6.706,6.706,0,0,1,86.181,18.989Zm18.989,0a6.711,6.711,0,1,1,6.711-6.711A6.706,6.706,0,0,1,105.17,18.989Z" transform="translate(1386.769 2256.275)" fill="#5d5086"/>
    </g>
  </g>
</svg>
