<svg xmlns="http://www.w3.org/2000/svg" width="149.717" height="137.221" viewBox="0 0 149.717 137.221"><defs><style>.a{fill:#9c9b9b;}.b{fill:#d93549;stroke:#ede9f4;stroke-miterlimit:10;}</style></defs><g transform="translate(-74.427 -206.75)"><g transform="translate(83.65 311.466)"><path class="a" d="M107.8,308.993l.066-1.9c0-.2-.1-.235-.234-.067l-1.036,1.234c-.1.168-.2.135-.165-.066l.2-1.436c.034-.166-.066-.234-.2-.1l-1.337,1.269c-.133.133-.234.1-.2-.1l.234-1.8c.033-.2-.069-.234-.2-.1l-1.269,1.269c-.133.135-.234.1-.2-.1l.232-1.9c.034-.2-.066-.235-.2-.1l-1.57,1.67c-.135.133-.168.1-.1-.066l2.1-4.809-11.62.066-.034,8.616,16.965-.267c.168,0,.2.067,0,.133l-2.037.936c-.2.1-.166.2,0,.2l2.037.335c.2.032.235.133.033.234l-1.7.768c-.168.066-.168.168.032.2l2.005.535c.166.034.2.133,0,.2l-1.7.669c-.2.1-.166.2,0,.267l1.938.635c.2.067.2.168,0,.234l-1.971.568c-.2.067-.2.166-.033.234l1.7.7c.2.067.168.133,0,.133l-21.674.335c-.2,0-.234-.067-.034-.168l1.571-.734c.2-.1.166-.2,0-.268l-.268-.1-.067.1c-.066.168-.2.168-.267,0l-.1-.234-.635-.2c-.2-.066-.2-.166-.033-.268l.368-.2-.1-.267c-.066-.168-.2-.168-.267,0l-.467,1.135c-.066.2-.168.2-.234,0l-.569-1.7c-.066-.2-.166-.2-.234-.034l-.566,1.4c-.067.168-.135.168-.135-.033V301.945l-3.606.034c-.2,0-.234-.067-.034-.168l1.237-.568c.2-.1.2-.235,0-.3l-1.5-.6c-.168-.1-.168-.2,0-.267l1.8-.735c.168-.067.168-.2-.033-.235l-1.871-.533c-.2-.067-.2-.166,0-.235l2.005-.634c.166-.033.166-.133,0-.2l-1.872-.668c-.166-.066-.166-.166.034-.2l1.736-.436c.2-.032.2-.133.034-.2l-1.8-.7c-.166-.066-.166-.133.034-.133l3.84-.033v-7.181c0-.2.1-.232.2-.066l.535.969c.1.166.234.133.267-.066l.5-1.938c.066-.2.133-.2.168,0l.6,2.338c.033.2.133.2.2.033l.735-1.736c.1-.168.2-.168.234.033l.5,1.67c.066.2.166.2.234.033l.734-1.836c.067-.168.168-.168.2.033l.466,2.037c.034.168.135.2.2,0l.634-1.5c.069-.165.135-.165.135.034l-.033,7.147,15.628-.067c.2,0,.2.067.034.168l-1.4.8c-.165.1-.133.234.034.3l.936.267.933-1.035c.135-.135.268-.1.268.1l.1,1.035c.033.2.166.235.3.067l.9-1c.133-.133.267-.1.267.1l.135,1.335c0,.168.133.235.267.1l.667-.635c.135-.133.268-.1.268.1l-.033,1.736c0,.2.135.268.3.168l.7-.5c.166-.135.234-.067.166.1l-4.875,10.753C107.866,309.192,107.8,309.192,107.8,308.993ZM103.291,294.8l-2.137-5.643c-.066-.168,0-.234.168-.168l.232.1a.227.227,0,0,0,.368-.166l.033-.335c0-.2.133-.234.3-.1l.368.4c.166.133.3.066.334-.1l.1-.6c.033-.2.168-.234.3-.1l.333.334c.135.135.234.067.268-.1l.033-.5c0-.2.135-.267.268-.1l.4.434c.132.133.265.1.333-.1l.135-.467c.033-.166.133-.2.2,0l2.171,5.779c.067.2,0,.234-.135.1l-.6-.535c-.133-.133-.267-.1-.267.1l-.034.668c0,.168-.1.2-.234.066l-.433-.533c-.133-.166-.268-.133-.3.066l-.1.6c0,.166-.168.235-.3.1l-.4-.434c-.133-.133-.234-.066-.234.1l.034.8c0,.2-.1.234-.234.1l-.5-.5c-.135-.133-.268-.066-.268.1l-.067.6C103.424,294.966,103.358,295,103.291,294.8Zm5.177-1.236-2.138-5.643c-.066-.168.033-.268.2-.168l.2.1a.232.232,0,0,0,.367-.168l.033-.334c.034-.2.168-.234.3-.1l.4.4c.132.135.267.067.3-.133l.1-.568c.033-.2.168-.234.3-.1l.334.334c.133.133.267.067.267-.135l.034-.5c.033-.166.133-.234.267-.066l.4.433c.133.133.3.1.334-.1l.133-.466c.067-.2.168-.2.234,0l2.17,5.777c.067.2,0,.235-.133.1l-.6-.568c-.133-.1-.268-.066-.268.133l-.033.635c-.033.2-.133.234-.268.1l-.433-.568c-.133-.133-.234-.1-.267.1l-.1.566c-.034.2-.168.268-.3.1l-.4-.4c-.133-.133-.267-.1-.234.1v.8c0,.2-.1.234-.234.1l-.5-.5c-.133-.135-.268-.1-.268.1l-.033.6C108.6,293.73,108.534,293.73,108.468,293.563Z" transform="translate(-81.667 -286.198)"/><path class="a" d="M136.05,312.95c0,.2-.066.234-.2.067l-.6-.969c-.1-.168-.234-.133-.267.067l-.4,1.8c-.069.168-.135.168-.2,0l-.667-1.8c-.067-.168-.2-.168-.235.033l-.267.836c.2.066.2.2,0,.267l-.133.066-.168.6c-.067.168-.166.168-.267,0l-.133-.3-.334.166c-.2.1-.168.2,0,.268l1.6.469c.168.066.168.165,0,.267l-1.469.635c-.2.066-.2.2-.033.3l.968.535c.168.1.168.168-.033.168L111,316.39c-.2,0-.2-.067-.032-.168l1-.6c.166-.1.133-.234-.067-.267l-2.038-.5c-.2-.066-.2-.133,0-.2l1.938-.635c.2-.067.2-.2.033-.267l-.434-.2c-.066.1-.166.1-.234-.066l-.033-.1-.6-.267c-.168-.1-.168-.234,0-.268l.3-.1-.234-.5c-.1-.168-.2-.168-.268,0l-.469,1.4c-.066.2-.166.2-.234,0l-.566-1.5c-.067-.166-.2-.166-.268,0l-.568,1.436c-.066.2-.1.2-.1,0l.133-23.846c0-.2.066-.2.135-.033l.734,1.468c.067.2.168.168.2,0l.434-2.07c.033-.166.1-.2.166,0l.334,1.068,1.069-.3.133-.434c.066-.168.166-.168.234,0l.1.3.234-.067c.168-.066.2-.166.033-.268l-1.436-.867c-.166-.1-.133-.2.067-.2l23.011.135q.3,0,0,.1l-2.1.735c-.2.033-.2.133,0,.2l1.469.434c.166.033.166.133,0,.2l-.235.1.4,1.335h.067c.166.067.166.168,0,.268.066.166.166.166.234,0l.6-1.469c.067-.2.2-.2.234,0l.436,1.5c.066.2.166.2.232.034l.7-1.5c.066-.166.133-.166.133.033Zm-25.715-22.576.268.9c0,.033.032.066.032.1a1.161,1.161,0,0,0,.2-.1l.267-.734Zm2.07,21.875-.032-.133c-.034,0-.034-.034-.069-.034l-.234-.1-.2.467.433-.135C112.374,312.282,112.405,312.282,112.405,312.249Zm2.372-2.571h14.661l.034-14.628-14.695-.1Zm16.365-18.836s.1.133.133.133l1.068.334.235-1-1.3.469A.168.168,0,0,0,131.142,290.841Z" transform="translate(-73.197 -285.514)"/><path class="a" d="M162.963,297.15l-11.854,20.238c-.1.168-.168.133-.168-.066l.066-1.637c0-.2-.1-.234-.234-.067l-1.537,1.838c-.1.168-.166.133-.133-.067l.5-1.937c.067-.2-.033-.267-.166-.133l-1.471,1.1c-.166.135-.268.069-.2-.1l.6-2c.067-.2-.034-.267-.166-.133l-1.537,1.068c-.133.133-.235.067-.168-.133l.635-1.871c.066-.2-.034-.234-.168-.133l-1.269.867c-.166.135-.234.069-.135-.1l10.287-18-15.963-.069.1,7.449c0,.2-.1.234-.2.066l-.734-1.3c-.1-.166-.2-.133-.268.034l-.367,1.8c-.034.2-.1.2-.168,0l-.634-1.8c-.069-.168-.2-.2-.268,0l-.668,1.5c-.066.2-.2.2-.268,0l-.6-1.6c-.066-.168-.168-.168-.234,0l-.634,1.7c-.069.165-.168.165-.2-.034l-.367-1.471c-.033-.2-.166-.2-.234-.032l-.734,1.269c-.1.2-.168.166-.168-.033l-.3-15.764c-.034-.2.032-.2.1-.034l.635,1.537c.066.168.2.168.268,0l.566-1.4c.067-.166.168-.166.234,0l.636,1.636h.4l.467-1.77q.1-.3.2,0l.568,1.77h.268l.5-1.77c.067-.2.166-.2.234-.032l.668,1.5c.067.166.2.2.3.033l.6-.968c.1-.168.168-.168.2.033v1.2l21.975-.066c.166,0,.2.066.033.133l-1.8.836c-.2.1-.166.2,0,.232l1.836.4c.2.034.2.133,0,.2l-1.568.6c-.2.066-.2.2-.034.3l1.236.6c.2.066.2.2.034.3l-.869.434c-.168.1-.168.234,0,.334l.968.568c.168.1.168.234,0,.3l-.768.333v.6l.436.268.8-.6c.168-.1.268-.034.2.133l-.569,2.1c-.032.168.067.268.234.168l.9-.5C163,296.916,163.064,296.982,162.963,297.15Z" transform="translate(-65.259 -285.811)"/><path class="a" d="M188.089,304.444c.2,0,.234.1.033.166l-26.317,13.359c-.168.1-.2.067-.067-.067l1.571-1.537c.133-.133.1-.234-.1-.2l-2.438.4c-.2,0-.234-.067-.1-.168l1.8-1.436c.166-.133.135-.2-.033-.133l-2.172.634c-.2.034-.234-.032-.1-.166l1.836-1.636c.166-.133.133-.2-.066-.168l-2.238.5c-.2.034-.235-.033-.1-.133l1.971-1.736c.135-.1.1-.2-.1-.168l-2.573.3c-.2.033-.234-.033-.033-.133l27.151-13.96c.168-.067.2-.034.067.1l-1.5,1.568c-.133.133-.1.235.1.2l2-.267c.2-.034.234.066.1.234l-1.435,1.5c-.133.133-.1.234.1.168l1.835-.535c.2-.066.268.033.135.168l-1.27,1.67c-.133.133-.066.234.1.166l1.871-.533c.166-.034.2.032.067.166l-1.4,1.4c-.166.133-.1.268.1.268Zm-28.855-9.919,1.17-.334c.166-.034.2-.168.033-.3l-.936-.7c-.166-.1-.133-.234.069-.267l1.135-.2c.2,0,.234-.133.066-.265l-1.17-.87c-.133-.133-.133-.267.067-.3l1.5-.234c.2-.033.2-.133.033-.235l-1.237-.6c-.165-.1-.165-.2.034-.2l1.471-.168c.2-.034.234-.168.133-.3l-.9-1.035c-.135-.133-.067-.235.1-.2l18.436,4.241c.2.033.2.1,0,.135l-1.77.3c-.2.033-.2.133-.034.234l1.57.869c.168.1.168.2-.033.2l-2.1.1c-.2,0-.234.1-.066.2l1.4.9c.166.1.166.234-.033.265l-1.4.268c-.2.033-.2.168-.033.267l1.5.9c.2.1.166.166-.034.2l-1.737.066c-.2.034-.234.133-.066.234l1.469,1.17c.133.133.1.2-.066.166l-18.569-4.342C159.034,294.658,159.034,294.592,159.234,294.525Z" transform="translate(-57.001 -285.524)"/></g><g transform="translate(75.469 207.25)"><path class="b" d="M75.469,306.293l39.737-49.521L75.469,207.25h29.8l79.471,99.043h-29.8l-24.834-30.95-24.839,30.95Z" transform="translate(-75.469 -207.25)"/><path class="b" d="M213.8,306.293l-39.737-49.521L213.8,207.25H184l-79.471,99.043h29.8l24.834-30.95L184,306.293Z" transform="translate(-66.168 -207.25)"/></g></g></svg>