<svg xmlns="http://www.w3.org/2000/svg" width="1292.604" height="971.816" viewBox="0 0 1292.604 971.816">
  <g id="undraw_windy_day_x63l" transform="translate(0)">
    <path id="Caminho_89" data-name="Caminho 89" d="M951.28,838.191c-84.529,18.688-195.146,15.155-313.842.138-97.088-12.283-206.58-43-295.445-78.77a58.618,58.618,0,0,1,34.124-16.914c.363-.055.737-.108,1.11-.15a82.921,82.921,0,0,1,19.726,0c82.989,9.315,67.759,54.741,179.71,3.8,69.624-31.684,144.516-36.142,193.964-25.382.911.2,1.81.4,2.709.609,28.6,6.673,48.165,18.559,52.394,33.2,11.544,39.934-40.127,64.176,48.562,65.926C898.9,821.131,926.466,832.116,951.28,838.191Z" transform="translate(0.87 82.685)" fill="#3f3d56"/>
    <path id="Caminho_90" data-name="Caminho 90" d="M1341.379,884.644c-33.936-2.743-67.8-7.95-101.549-12.333q-71.37-9.269-142.664-19.1c-94.222-12.9-188.387-26.2-282.578-39.313q-142.276-19.8-284.631-39.033Q398,757.028,265.936,739.974c-66.085-8.432-132.213-16.584-198.508-23.188q-7.637-.761-15.276-1.507c-2.258-.221-2.243,3.308,0,3.528,61.739,6.052,123.336,13.292,184.886,21.033,87.837,11.047,175.593,22.744,263.329,34.559q142.361,19.17,284.644,38.919c93.792,13.013,187.55,26.274,281.355,39.193,87.016,11.984,174.057,24.424,261.349,34.261,4.548.512,9.1,1.033,13.661,1.4,2.263.183,2.251-3.346,0-3.528Z" transform="translate(-50.464 82.618)" fill="#3f3d56"/>
    <path id="Caminho_91" data-name="Caminho 91" d="M462.712,439.851s-16.737,77.6,6.086,76.077,12.172-71.513,12.172-71.513Z" transform="translate(21.085 34.121)" fill="#a0616a"/>
    <path id="Caminho_92" data-name="Caminho 92" d="M488.986,718.525l10.651,56.3,24.345-3.043-7.608-60.862Z" transform="translate(86.104 125.183)" fill="#a0616a"/>
    <path id="Caminho_93" data-name="Caminho 93" d="M593.779,670.811l6.086,41.082h31.952l-6.086-38.038Z" transform="translate(104.557 118.121)" fill="#a0616a"/>
    <path id="Caminho_94" data-name="Caminho 94" d="M521.548,410.7s-25.866,50.211-16.737,174.978,9.129,243.448,9.129,243.448l65.427-4.565,18.259-310.4,71.513,269.315,47.168-4.565L704.134,515.684,666.1,389.395Z" transform="translate(29.197 25.236)" fill="#2f2e41"/>
    <path id="Caminho_95" data-name="Caminho 95" d="M567.4,782.154s4.565-13.694-3.043-13.694H547.62s-18.259,33.474-28.909,36.517-44.125,31.953-12.172,35,80.642-13.694,80.642-19.78-4.565-31.953-4.565-31.953Z" transform="translate(27.47 91.985)" fill="#2f2e41"/>
    <path id="Caminho_96" data-name="Caminho 96" d="M675.038,735.509s-27.971-7.737-26.158-3.108-4.273,18.323-4.273,18.323-15.216,86.728,30.431,79.12,12.172-73.034,12.172-73.034l-6.759-25.885Z" transform="translate(53.728 85.375)" fill="#2f2e41"/>
    <circle id="Elipse_35" data-name="Elipse 35" cx="45.646" cy="45.646" r="45.646" transform="translate(555.309 15.986)" fill="#a0616a"/>
    <path id="Caminho_97" data-name="Caminho 97" d="M535.569,109.948s7.608,44.125,3.043,53.254,36.517,27.388,36.517,27.388l21.3-51.733V109.948Z" transform="translate(34.956 -23.971)" fill="#a0616a"/>
    <path id="Caminho_98" data-name="Caminho 98" d="M563.786,158.491s-13.851,2.037-19.859-8.111-19.7,70.494-19.7,70.494,6.086,106.508-1.522,130.853-6.086,33.474-3.043,38.039,12.172-1.522,4.565,10.651-7.608,4.565-7.608,16.737-3.043,56.3-3.043,56.3L677.9,461.279,600.3,128.06S574.438,160.013,563.786,158.491Z" transform="translate(31.084 -20.781)" fill="#3f3d56"/>
    <path id="Caminho_99" data-name="Caminho 99" d="M618.6,144.8s62.383,9.129,65.427,22.823,63.9,394.081,31.953,413.861S580.563,616.478,576,596.7s-28.909-422.99,15.216-468.636Z" transform="translate(40.173 -20.781)" fill="#d0cde1"/>
    <path id="Caminho_100" data-name="Caminho 100" d="M697.977,492.121H685.2s3.931-46.191,0-50.45c0,0-35.708-3.931-71.744,35.38,0,0,6.224-42.915,52.743-45.208,14.912-.734,23.531,5.2,28.353,13.6C704.781,463.24,697.977,492.121,697.977,492.121Z" transform="translate(48.672 32.7)" fill="#3f3d56"/>
    <path id="Caminho_101" data-name="Caminho 101" d="M687.235,490.64H674.459s3.931-46.191,0-50.45l9.353,3.767C694.04,461.759,687.235,490.64,687.235,490.64Z" transform="translate(59.413 34.181)" opacity="0.15"/>
    <path id="Caminho_102" data-name="Caminho 102" d="M624.184,457.461,606.493,487.6h8.19S615.993,465.323,624.184,457.461Z" transform="translate(47.445 37.222)" fill="#3f3d56"/>
    <path id="Caminho_103" data-name="Caminho 103" d="M624.184,457.461,606.493,487.6h8.19S615.993,465.323,624.184,457.461Z" transform="translate(47.445 37.222)" opacity="0.15"/>
    <path id="Caminho_104" data-name="Caminho 104" d="M783.9,611.552a31.286,31.286,0,0,1-12.285,26.371S608.8,676.58,590.787,673.3a25.66,25.66,0,0,1-6.4-2.1c-14.362-6.814-23.413-25.421-23.413-25.421s-.272-4.809-.675-12.645c-.773-15.155-2.025-41.634-2.716-66.561-.681-24.629-.816-47.737.606-56.91,3.6-23.259,28.5-25.225,28.5-25.225l165.764-7.207a58.142,58.142,0,0,1,16.118,2.11c17.92,5.382,15.331,19.184,15.331,19.184S783.249,593.862,783.9,611.552Z" transform="translate(38.746 40.704)" fill="#575a89"/>
    <path id="Caminho_105" data-name="Caminho 105" d="M768.573,479.347c-10.159,3.165-34.581,10.142-43.308,7.063-11.138-3.931-97.3-1.31-128.745,2.293s-20.311,88.779-20.311,88.779l-18.623-10.9c-.681-24.629-.816-47.737.606-56.91,3.6-23.259,28.5-25.225,28.5-25.225l165.764-7.207a58.141,58.141,0,0,1,16.117,2.109Z" transform="translate(38.746 40.704)" fill="#3f3d56"/>
    <path id="Caminho_106" data-name="Caminho 106" d="M636.382,546.011s-15.778-88.194,13.241-100.28l3.794.036s-9.173,12.121-5.569,34.4,1.638,73.054,1.638,73.054S638.347,559.77,636.382,546.011Z" transform="translate(51.954 35.156)" fill="#2f2e41"/>
    <path id="Caminho_107" data-name="Caminho 107" d="M645.49,450.828s17.363-27.846,49.139-12.449,34.725,50.45,34.725,50.45S707.405,424.62,645.49,450.828Z" transform="translate(54.312 33.044)" fill="#2f2e41"/>
    <path id="Caminho_108" data-name="Caminho 108" d="M669.069,507l-5.242-33.743,2.622-31.593L673,474.24,675.948,507Z" transform="translate(116.891 77.771)" fill="#2f2e41"/>
    <path id="Caminho_109" data-name="Caminho 109" d="M618.145,494.562l18.346-4.587,18.673,2.293v8.19L638.129,505.7l-19.984-1.966Z" transform="translate(108.847 86.278)" fill="#2f2e41"/>
    <path id="Caminho_110" data-name="Caminho 110" d="M580.97,635.384a51.161,51.161,0,0,0,2.939,12.481c-14.362-6.814-23.413-25.421-23.413-25.421s-.272-4.809-.675-12.645l11.977,4.947Z" transform="translate(39.227 64.046)" fill="#3f3d56"/>
    <path id="Caminho_111" data-name="Caminho 111" d="M584.82,647.058a4.623,4.623,0,0,1-2.218-1.238C585.059,646.809,586.095,647.327,584.82,647.058Z" transform="translate(43.238 70.389)" fill="#2f2e41"/>
    <path id="Caminho_112" data-name="Caminho 112" d="M548.916,144.232l-59.252,58.58L510.965,393s-42.6,225.189-18.259,225.189,21.3,3.043,25.866-13.694S548.916,144.232,548.916,144.232Z" transform="translate(26.086 -17.934)" fill="#d0cde1"/>
    <path id="Caminho_113" data-name="Caminho 113" d="M510.133,190.16l-15.216,4.564s-13.694,10.651-12.172,33.474-1.521,88.25-1.521,88.25-9.129,13.694-4.565,30.431l-21.3,146.069,47.168,7.608,16.737-76.077Z" transform="translate(20.832 -9.846)" fill="#d0cde1"/>
    <path id="Caminho_114" data-name="Caminho 114" d="M663.57,396.01s-18.259,95.858,0,89.771,41.082-73.034,25.866-83.685S663.57,396.01,663.57,396.01Z" transform="translate(56.067 26.23)" fill="#a0616a"/>
    <path id="Caminho_115" data-name="Caminho 115" d="M523.03,103.829s-4.66-6.99-2.868-14.518a44,44,0,0,0,1.255-13.084s3.764-12.188,7.528-19,1.972-9.679,13.8-11.83,6.99-17.565,38.177-.9a9.146,9.146,0,0,0,9.5,3.585c6.452-1.255,8.783,7.707,8.783,7.707s4.3-2.509,5.915,1.075,13.115-2.151,13.115,22.045-13.089,45.811-13.089,45.811.96-40.7-20.369-44.824-44.271-16.131-49.827-.717a117.514,117.514,0,0,1-11.919,24.645Z" transform="translate(32.171 -36.844)" fill="#2f2e41"/>
    <path id="Caminho_116" data-name="Caminho 116" d="M279.956,521.309c-10.106,8.39-27.921,49.626-27.921,49.626a116.8,116.8,0,0,0,17.166.543l-2-10.949,7.452,10.511a47.083,47.083,0,0,0,8.579-1.736l-3.086-16.851,9.634,13.591c.071-.057.145-.112.214-.169,10.106-8.389,16.053-25.167,13.282-37.473S290.063,512.919,279.956,521.309Z" transform="translate(-14.97 47.639)" fill="#fb4d5a"/>
    <path id="Caminho_117" data-name="Caminho 117" d="M508.956,677.309c-10.106,8.39-27.921,49.626-27.921,49.626a116.792,116.792,0,0,0,17.166.543l-2-10.949,7.452,10.511a47.073,47.073,0,0,0,8.579-1.736l-3.086-16.851,9.634,13.591c.071-.057.145-.112.214-.169,10.106-8.389,16.053-25.167,13.282-37.473S519.063,668.919,508.956,677.309Z" transform="translate(25.354 75.108)" fill="#fb4d5a"/>
    <path id="Caminho_118" data-name="Caminho 118" d="M475.037,349.8c-8.607,8.967-26,50.365-26,50.365a73.718,73.718,0,0,0,13.376-.917l-.648-10.426,4.943,9.545a35.915,35.915,0,0,0,6.854-2.4l-1-16.046,6.391,12.341c.06-.061.123-.12.182-.182,8.607-8.967,14.667-25.7,13.535-37.376S483.645,340.837,475.037,349.8Z" transform="translate(19.719 17.293)" fill="#fb4d5a"/>
    <path id="Caminho_119" data-name="Caminho 119" d="M295.873,794.934c-11.986-3.291-56.67,1.153-56.67,1.153a73.723,73.723,0,0,0,7.183,11.321l8.856-5.54-6.034,8.9a35.915,35.915,0,0,0,5.378,4.88l13.63-8.526-7.8,11.5c.082.024.164.05.247.073,11.986,3.291,29.584.641,39.308-5.92S307.859,798.226,295.873,794.934Z" transform="translate(-17.23 96.432)" fill="#3f3d56"/>
    <path id="Caminho_120" data-name="Caminho 120" d="M323.873,778.934c-11.986-3.291-56.669,1.153-56.669,1.153a73.722,73.722,0,0,0,7.183,11.321l8.856-5.539-6.034,8.9a35.916,35.916,0,0,0,5.378,4.88l13.63-8.526-7.8,11.5c.082.024.164.05.247.073,11.986,3.291,29.584.641,39.308-5.92S335.859,782.226,323.873,778.934Z" transform="translate(-12.299 93.615)" fill="#3f3d56"/>
    <path id="Caminho_121" data-name="Caminho 121" d="M621.873,841.934c-11.986-3.291-56.669,1.153-56.669,1.153a73.714,73.714,0,0,0,7.183,11.321l8.856-5.539-6.034,8.9a35.916,35.916,0,0,0,5.378,4.88l13.63-8.526-7.8,11.5c.082.024.164.05.247.073,11.986,3.291,29.585.641,39.308-5.92S633.859,845.226,621.873,841.934Z" transform="translate(40.175 104.709)" fill="#3f3d56"/>
    <path id="Caminho_122" data-name="Caminho 122" d="M323.873,819.934c-11.986-3.291-56.669,1.153-56.669,1.153a73.717,73.717,0,0,0,7.183,11.321l8.856-5.539-6.034,8.9a35.91,35.91,0,0,0,5.378,4.88l13.63-8.526-7.8,11.5c.082.024.164.05.247.073,11.986,3.291,29.584.641,39.308-5.92S335.859,823.226,323.873,819.934Z" transform="translate(-12.299 100.835)" fill="#3f3d56"/>
    <path id="Caminho_123" data-name="Caminho 123" d="M746.127,465.823c-3.67,5.641-6,19.857-7.4,32.206l6.917,7.374-7.419-2.627c-.913,9.243-1.271,16.457-1.271,16.457s29.782-6.451,36.84-17.3,6.585-27.726-1.057-37.7S753.184,454.975,746.127,465.823Z" transform="translate(70.419 37.176)" fill="#fb4d5a"/>
    <path id="Caminho_124" data-name="Caminho 124" d="M772.364,642.832c-3.362,5.642-5.5,19.859-6.779,32.208l6.331,7.373-6.792-2.625c-.838,9.243-1.168,16.457-1.168,16.457s27.268-6.459,33.733-17.309,6.037-27.727-.957-37.7S778.829,631.982,772.364,642.832Z" transform="translate(75.172 68.344)" fill="#fb4d5a"/>
    <path id="Caminho_125" data-name="Caminho 125" d="M645.838,153.975s35-6.086,42.6,39.56,27.388,135.418,27.388,135.418L710.4,465.93l-50.864-16.774,1.522-104.987L635.187,187.45Z" transform="translate(52.498 -16.266)" fill="#d0cde1"/>
    <path id="Caminho_126" data-name="Caminho 126" d="M582.782,169.488,602.561,298.82,598,408.371l21.3-106.509Z" transform="translate(102.62 29.845)" opacity="0.15"/>
    <path id="Caminho_127" data-name="Caminho 127" d="M769.956,116.309c-10.106,8.39-27.921,49.626-27.921,49.626a116.794,116.794,0,0,0,17.166.543l-2-10.949,7.452,10.512a47.087,47.087,0,0,0,8.579-1.736l-3.086-16.851,9.635,13.591c.071-.057.145-.112.214-.169,10.106-8.389,16.053-25.167,13.282-37.473S780.063,107.919,769.956,116.309Z" transform="translate(71.312 -23.676)" fill="#fb4d5a"/>
  </g>
</svg>
