<svg xmlns="http://www.w3.org/2000/svg" xmlns:xlink="http://www.w3.org/1999/xlink" width="203.087" height="190.41" viewBox="0 0 203.087 190.41">
  <defs>
    <clipPath id="clip-path">
      <rect width="73.83" height="70.782" fill="none"/>
    </clipPath>
  </defs>
  <g id="Grupo_46" data-name="Grupo 46" transform="translate(-310 -2229.59)">
    <g id="Repetição_de_grade_8" data-name="Repetição de grade 8" transform="translate(439.257 2231.675)" opacity="0.6" clip-path="url(#clip-path)">
      <g transform="translate(-526 -1901)">
        <rect id="Retângulo_29" data-name="Retângulo 29" width="4" height="4" transform="translate(528 1903)" fill="#dfdfdf"/>
      </g>
      <g transform="translate(-517 -1901)">
        <rect id="Retângulo_29-2" data-name="Retângulo 29" width="4" height="4" transform="translate(528 1903)" fill="#dfdfdf"/>
      </g>
      <g transform="translate(-508 -1901)">
        <rect id="Retângulo_29-3" data-name="Retângulo 29" width="4" height="4" transform="translate(528 1903)" fill="#dfdfdf"/>
      </g>
      <g transform="translate(-499 -1901)">
        <rect id="Retângulo_29-4" data-name="Retângulo 29" width="4" height="4" transform="translate(528 1903)" fill="#dfdfdf"/>
      </g>
      <g transform="translate(-490 -1901)">
        <rect id="Retângulo_29-5" data-name="Retângulo 29" width="4" height="4" transform="translate(528 1903)" fill="#dfdfdf"/>
      </g>
      <g transform="translate(-481 -1901)">
        <rect id="Retângulo_29-6" data-name="Retângulo 29" width="4" height="4" transform="translate(528 1903)" fill="#dfdfdf"/>
      </g>
      <g transform="translate(-472 -1901)">
        <rect id="Retângulo_29-7" data-name="Retângulo 29" width="4" height="4" transform="translate(528 1903)" fill="#dfdfdf"/>
      </g>
      <g transform="translate(-463 -1901)">
        <rect id="Retângulo_29-8" data-name="Retângulo 29" width="4" height="4" transform="translate(528 1903)" fill="#dfdfdf"/>
      </g>
      <g transform="translate(-454 -1901)">
        <rect id="Retângulo_29-9" data-name="Retângulo 29" width="4" height="4" transform="translate(528 1903)" fill="#dfdfdf"/>
      </g>
      <g transform="translate(-526 -1892)">
        <rect id="Retângulo_29-10" data-name="Retângulo 29" width="4" height="4" transform="translate(528 1903)" fill="#dfdfdf"/>
      </g>
      <g transform="translate(-517 -1892)">
        <rect id="Retângulo_29-11" data-name="Retângulo 29" width="4" height="4" transform="translate(528 1903)" fill="#dfdfdf"/>
      </g>
      <g transform="translate(-508 -1892)">
        <rect id="Retângulo_29-12" data-name="Retângulo 29" width="4" height="4" transform="translate(528 1903)" fill="#dfdfdf"/>
      </g>
      <g transform="translate(-499 -1892)">
        <rect id="Retângulo_29-13" data-name="Retângulo 29" width="4" height="4" transform="translate(528 1903)" fill="#dfdfdf"/>
      </g>
      <g transform="translate(-490 -1892)">
        <rect id="Retângulo_29-14" data-name="Retângulo 29" width="4" height="4" transform="translate(528 1903)" fill="#dfdfdf"/>
      </g>
      <g transform="translate(-481 -1892)">
        <rect id="Retângulo_29-15" data-name="Retângulo 29" width="4" height="4" transform="translate(528 1903)" fill="#dfdfdf"/>
      </g>
      <g transform="translate(-472 -1892)">
        <rect id="Retângulo_29-16" data-name="Retângulo 29" width="4" height="4" transform="translate(528 1903)" fill="#dfdfdf"/>
      </g>
      <g transform="translate(-463 -1892)">
        <rect id="Retângulo_29-17" data-name="Retângulo 29" width="4" height="4" transform="translate(528 1903)" fill="#dfdfdf"/>
      </g>
      <g transform="translate(-454 -1892)">
        <rect id="Retângulo_29-18" data-name="Retângulo 29" width="4" height="4" transform="translate(528 1903)" fill="#dfdfdf"/>
      </g>
      <g transform="translate(-526 -1883)">
        <rect id="Retângulo_29-19" data-name="Retângulo 29" width="4" height="4" transform="translate(528 1903)" fill="#dfdfdf"/>
      </g>
      <g transform="translate(-517 -1883)">
        <rect id="Retângulo_29-20" data-name="Retângulo 29" width="4" height="4" transform="translate(528 1903)" fill="#dfdfdf"/>
      </g>
      <g transform="translate(-508 -1883)">
        <rect id="Retângulo_29-21" data-name="Retângulo 29" width="4" height="4" transform="translate(528 1903)" fill="#dfdfdf"/>
      </g>
      <g transform="translate(-499 -1883)">
        <rect id="Retângulo_29-22" data-name="Retângulo 29" width="4" height="4" transform="translate(528 1903)" fill="#dfdfdf"/>
      </g>
      <g transform="translate(-490 -1883)">
        <rect id="Retângulo_29-23" data-name="Retângulo 29" width="4" height="4" transform="translate(528 1903)" fill="#dfdfdf"/>
      </g>
      <g transform="translate(-481 -1883)">
        <rect id="Retângulo_29-24" data-name="Retângulo 29" width="4" height="4" transform="translate(528 1903)" fill="#dfdfdf"/>
      </g>
      <g transform="translate(-472 -1883)">
        <rect id="Retângulo_29-25" data-name="Retângulo 29" width="4" height="4" transform="translate(528 1903)" fill="#dfdfdf"/>
      </g>
      <g transform="translate(-463 -1883)">
        <rect id="Retângulo_29-26" data-name="Retângulo 29" width="4" height="4" transform="translate(528 1903)" fill="#dfdfdf"/>
      </g>
      <g transform="translate(-454 -1883)">
        <rect id="Retângulo_29-27" data-name="Retângulo 29" width="4" height="4" transform="translate(528 1903)" fill="#dfdfdf"/>
      </g>
      <g transform="translate(-526 -1874)">
        <rect id="Retângulo_29-28" data-name="Retângulo 29" width="4" height="4" transform="translate(528 1903)" fill="#dfdfdf"/>
      </g>
      <g transform="translate(-517 -1874)">
        <rect id="Retângulo_29-29" data-name="Retângulo 29" width="4" height="4" transform="translate(528 1903)" fill="#dfdfdf"/>
      </g>
      <g transform="translate(-508 -1874)">
        <rect id="Retângulo_29-30" data-name="Retângulo 29" width="4" height="4" transform="translate(528 1903)" fill="#dfdfdf"/>
      </g>
      <g transform="translate(-499 -1874)">
        <rect id="Retângulo_29-31" data-name="Retângulo 29" width="4" height="4" transform="translate(528 1903)" fill="#dfdfdf"/>
      </g>
      <g transform="translate(-490 -1874)">
        <rect id="Retângulo_29-32" data-name="Retângulo 29" width="4" height="4" transform="translate(528 1903)" fill="#dfdfdf"/>
      </g>
      <g transform="translate(-481 -1874)">
        <rect id="Retângulo_29-33" data-name="Retângulo 29" width="4" height="4" transform="translate(528 1903)" fill="#dfdfdf"/>
      </g>
      <g transform="translate(-472 -1874)">
        <rect id="Retângulo_29-34" data-name="Retângulo 29" width="4" height="4" transform="translate(528 1903)" fill="#dfdfdf"/>
      </g>
      <g transform="translate(-463 -1874)">
        <rect id="Retângulo_29-35" data-name="Retângulo 29" width="4" height="4" transform="translate(528 1903)" fill="#dfdfdf"/>
      </g>
      <g transform="translate(-454 -1874)">
        <rect id="Retângulo_29-36" data-name="Retângulo 29" width="4" height="4" transform="translate(528 1903)" fill="#dfdfdf"/>
      </g>
      <g transform="translate(-526 -1865)">
        <rect id="Retângulo_29-37" data-name="Retângulo 29" width="4" height="4" transform="translate(528 1903)" fill="#dfdfdf"/>
      </g>
      <g transform="translate(-517 -1865)">
        <rect id="Retângulo_29-38" data-name="Retângulo 29" width="4" height="4" transform="translate(528 1903)" fill="#dfdfdf"/>
      </g>
      <g transform="translate(-508 -1865)">
        <rect id="Retângulo_29-39" data-name="Retângulo 29" width="4" height="4" transform="translate(528 1903)" fill="#dfdfdf"/>
      </g>
      <g transform="translate(-499 -1865)">
        <rect id="Retângulo_29-40" data-name="Retângulo 29" width="4" height="4" transform="translate(528 1903)" fill="#dfdfdf"/>
      </g>
      <g transform="translate(-490 -1865)">
        <rect id="Retângulo_29-41" data-name="Retângulo 29" width="4" height="4" transform="translate(528 1903)" fill="#dfdfdf"/>
      </g>
      <g transform="translate(-481 -1865)">
        <rect id="Retângulo_29-42" data-name="Retângulo 29" width="4" height="4" transform="translate(528 1903)" fill="#dfdfdf"/>
      </g>
      <g transform="translate(-472 -1865)">
        <rect id="Retângulo_29-43" data-name="Retângulo 29" width="4" height="4" transform="translate(528 1903)" fill="#dfdfdf"/>
      </g>
      <g transform="translate(-463 -1865)">
        <rect id="Retângulo_29-44" data-name="Retângulo 29" width="4" height="4" transform="translate(528 1903)" fill="#dfdfdf"/>
      </g>
      <g transform="translate(-454 -1865)">
        <rect id="Retângulo_29-45" data-name="Retângulo 29" width="4" height="4" transform="translate(528 1903)" fill="#dfdfdf"/>
      </g>
      <g transform="translate(-526 -1856)">
        <rect id="Retângulo_29-46" data-name="Retângulo 29" width="4" height="4" transform="translate(528 1903)" fill="#dfdfdf"/>
      </g>
      <g transform="translate(-517 -1856)">
        <rect id="Retângulo_29-47" data-name="Retângulo 29" width="4" height="4" transform="translate(528 1903)" fill="#dfdfdf"/>
      </g>
      <g transform="translate(-508 -1856)">
        <rect id="Retângulo_29-48" data-name="Retângulo 29" width="4" height="4" transform="translate(528 1903)" fill="#dfdfdf"/>
      </g>
      <g transform="translate(-499 -1856)">
        <rect id="Retângulo_29-49" data-name="Retângulo 29" width="4" height="4" transform="translate(528 1903)" fill="#dfdfdf"/>
      </g>
      <g transform="translate(-490 -1856)">
        <rect id="Retângulo_29-50" data-name="Retângulo 29" width="4" height="4" transform="translate(528 1903)" fill="#dfdfdf"/>
      </g>
      <g transform="translate(-481 -1856)">
        <rect id="Retângulo_29-51" data-name="Retângulo 29" width="4" height="4" transform="translate(528 1903)" fill="#dfdfdf"/>
      </g>
      <g transform="translate(-472 -1856)">
        <rect id="Retângulo_29-52" data-name="Retângulo 29" width="4" height="4" transform="translate(528 1903)" fill="#dfdfdf"/>
      </g>
      <g transform="translate(-463 -1856)">
        <rect id="Retângulo_29-53" data-name="Retângulo 29" width="4" height="4" transform="translate(528 1903)" fill="#dfdfdf"/>
      </g>
      <g transform="translate(-454 -1856)">
        <rect id="Retângulo_29-54" data-name="Retângulo 29" width="4" height="4" transform="translate(528 1903)" fill="#dfdfdf"/>
      </g>
      <g transform="translate(-526 -1847)">
        <rect id="Retângulo_29-55" data-name="Retângulo 29" width="4" height="4" transform="translate(528 1903)" fill="#dfdfdf"/>
      </g>
      <g transform="translate(-517 -1847)">
        <rect id="Retângulo_29-56" data-name="Retângulo 29" width="4" height="4" transform="translate(528 1903)" fill="#dfdfdf"/>
      </g>
      <g transform="translate(-508 -1847)">
        <rect id="Retângulo_29-57" data-name="Retângulo 29" width="4" height="4" transform="translate(528 1903)" fill="#dfdfdf"/>
      </g>
      <g transform="translate(-499 -1847)">
        <rect id="Retângulo_29-58" data-name="Retângulo 29" width="4" height="4" transform="translate(528 1903)" fill="#dfdfdf"/>
      </g>
      <g transform="translate(-490 -1847)">
        <rect id="Retângulo_29-59" data-name="Retângulo 29" width="4" height="4" transform="translate(528 1903)" fill="#dfdfdf"/>
      </g>
      <g transform="translate(-481 -1847)">
        <rect id="Retângulo_29-60" data-name="Retângulo 29" width="4" height="4" transform="translate(528 1903)" fill="#dfdfdf"/>
      </g>
      <g transform="translate(-472 -1847)">
        <rect id="Retângulo_29-61" data-name="Retângulo 29" width="4" height="4" transform="translate(528 1903)" fill="#dfdfdf"/>
      </g>
      <g transform="translate(-463 -1847)">
        <rect id="Retângulo_29-62" data-name="Retângulo 29" width="4" height="4" transform="translate(528 1903)" fill="#dfdfdf"/>
      </g>
      <g transform="translate(-454 -1847)">
        <rect id="Retângulo_29-63" data-name="Retângulo 29" width="4" height="4" transform="translate(528 1903)" fill="#dfdfdf"/>
      </g>
      <g transform="translate(-526 -1838)">
        <rect id="Retângulo_29-64" data-name="Retângulo 29" width="4" height="4" transform="translate(528 1903)" fill="#dfdfdf"/>
      </g>
      <g transform="translate(-517 -1838)">
        <rect id="Retângulo_29-65" data-name="Retângulo 29" width="4" height="4" transform="translate(528 1903)" fill="#dfdfdf"/>
      </g>
      <g transform="translate(-508 -1838)">
        <rect id="Retângulo_29-66" data-name="Retângulo 29" width="4" height="4" transform="translate(528 1903)" fill="#dfdfdf"/>
      </g>
      <g transform="translate(-499 -1838)">
        <rect id="Retângulo_29-67" data-name="Retângulo 29" width="4" height="4" transform="translate(528 1903)" fill="#dfdfdf"/>
      </g>
      <g transform="translate(-490 -1838)">
        <rect id="Retângulo_29-68" data-name="Retângulo 29" width="4" height="4" transform="translate(528 1903)" fill="#dfdfdf"/>
      </g>
      <g transform="translate(-481 -1838)">
        <rect id="Retângulo_29-69" data-name="Retângulo 29" width="4" height="4" transform="translate(528 1903)" fill="#dfdfdf"/>
      </g>
      <g transform="translate(-472 -1838)">
        <rect id="Retângulo_29-70" data-name="Retângulo 29" width="4" height="4" transform="translate(528 1903)" fill="#dfdfdf"/>
      </g>
      <g transform="translate(-463 -1838)">
        <rect id="Retângulo_29-71" data-name="Retângulo 29" width="4" height="4" transform="translate(528 1903)" fill="#dfdfdf"/>
      </g>
      <g transform="translate(-454 -1838)">
        <rect id="Retângulo_29-72" data-name="Retângulo 29" width="4" height="4" transform="translate(528 1903)" fill="#dfdfdf"/>
      </g>
    </g>
    <path id="Retângulo_36" data-name="Retângulo 36" d="M0,0H0A97.076,97.076,0,0,1,97.076,97.076v3.335a0,0,0,0,1,0,0H0a0,0,0,0,1,0,0V0A0,0,0,0,1,0,0Z" transform="translate(355 2274.59)" fill="#5d5086" opacity="0.2"/>
    <rect id="Retângulo_35" data-name="Retângulo 35" width="114.314" height="108.979" transform="translate(365.052 2253.92)" fill="#fff"/>
    <rect id="Retângulo_34" data-name="Retângulo 34" width="28.959" height="25.149" transform="translate(437.451 2288.215)" fill="#df5959"/>
    <g id="Grupo_6" data-name="Grupo 6" transform="translate(361.242 2253.92)">
      <path id="Caminho_40" data-name="Caminho 40" d="M121.172,5.68V107.919a2.06,2.06,0,0,0-.213.26c-1.373,3.834-3.55,5.4-7.6,5.42H7.337a6.986,6.986,0,0,1-6.7-4.189c-.237-.473-.426-.994-.639-1.491Q0,56.8,0,5.68c.047-.047.142-.095.166-.166C1.751,1.373,3.716,0,8.165,0H113.717a7.055,7.055,0,0,1,6.816,4.189C120.77,4.686,120.959,5.183,121.172,5.68ZM4.733,23.737v81.555c0,2.864.71,3.574,3.55,3.574H113.22c2.343,0,3.171-.852,3.195-3.219V23.761C79.188,23.737,42.055,23.737,4.733,23.737ZM116.439,18.91V8.189c0-2.7-.757-3.455-3.432-3.455H30.79c-7.644,0-15.312,0-22.956.024-2.059,0-3.053.852-3.077,2.745-.047,3.668-.024,7.337,0,11a1.5,1.5,0,0,0,.142.426C42.032,18.91,79.141,18.91,116.439,18.91Z" fill="#5d5086"/>
      <path id="Caminho_41" data-name="Caminho 41" d="M85.01,168.4H63c-2.319,0-3.1-.781-3.1-3.124V143.029c0-2.248.8-3.029,3.077-3.029h44.233c1.988,0,2.84.852,2.864,2.887v22.578c0,2.083-.852,2.911-2.958,2.911Q96.074,168.412,85.01,168.4ZM64.7,163.572h40.588V144.781H64.7Z" transform="translate(-45.724 -106.867)" fill="#5d5086"/>
      <path id="Caminho_42" data-name="Caminho 42" d="M275.666,328.4H254.84c-1.941,0-2.84-.852-2.84-2.793V302.769c0-1.87.9-2.769,2.745-2.769h41.866c1.822,0,2.722.923,2.722,2.793v22.72c0,2.012-.876,2.887-2.864,2.887C289.535,328.423,282.6,328.4,275.666,328.4ZM256.8,323.619h37.748V304.828H256.8Z" transform="translate(-192.361 -229.001)" fill="#5d5086"/>
      <path id="Caminho_43" data-name="Caminho 43" d="M328.566,168.4h-13.49c-2.272,0-3.077-.8-3.077-3.029V143.029c0-2.2.8-3.029,2.958-3.029h27.311c1.941,0,2.84.876,2.84,2.769v22.814c0,1.917-.9,2.793-2.84,2.793-4.544.024-9.135.024-13.7.024Zm11.81-23.619H321.017c6.532,5.443,12.875,10.745,19.359,16.141ZM316.8,163.619H336.14c-6.508-5.443-12.851-10.7-19.336-16.117Z" transform="translate(-238.161 -106.867)" fill="#5d5086"/>
      <path id="Caminho_44" data-name="Caminho 44" d="M77.933,304.733H62.574a2.4,2.4,0,0,1-2.509-1.893,2.357,2.357,0,0,1,1.491-2.651,3.819,3.819,0,0,1,1.16-.166q15.3,0,30.6-.024a2.383,2.383,0,1,1-.024,4.733Z" transform="translate(-45.818 -229.001)" fill="#df5959"/>
      <path id="Caminho_45" data-name="Caminho 45" d="M78.008,354.81H62.53a2.357,2.357,0,0,1-.947-4.568,3.8,3.8,0,0,1,1.16-.142H93.225c1.7,0,2.769.97,2.745,2.414-.024,1.4-1.065,2.3-2.722,2.319Q85.652,354.8,78.008,354.81Z" transform="translate(-45.821 -267.244)" fill="#df5959"/>
      <path id="Caminho_46" data-name="Caminho 46" d="M78.048,404.638H62.806a2.5,2.5,0,0,1-2.6-1.609,2.36,2.36,0,0,1,2.343-3.124c2.509-.047,5.041-.024,7.573-.024,7.715,0,15.431.024,23.169,0a2.51,2.51,0,0,1,2.58,1.491,2.352,2.352,0,0,1-2.414,3.219c-5.183.047-10.295.047-15.407.047Z" transform="translate(-45.838 -305.239)" fill="#df5959"/>
      <path id="Caminho_47" data-name="Caminho 47" d="M363.908,39.924H372.9c1.775,0,2.816.852,2.84,2.3.024,1.491-1.065,2.414-2.84,2.414H354.939c-1.775,0-2.816-.852-2.84-2.319-.024-1.491,1.065-2.414,2.84-2.414,2.982.024,5.988.024,8.97.024Z" transform="translate(-268.769 -30.457)" fill="#5d5086"/>
      <path id="Caminho_48" data-name="Caminho 48" d="M62.409,40.1A2.355,2.355,0,1,1,60,42.347,2.4,2.4,0,0,1,62.409,40.1Z" transform="translate(-45.795 -30.608)" fill="#5d5086"/>
      <path id="Caminho_49" data-name="Caminho 49" d="M122.419,40.1a2.369,2.369,0,0,1,2.39,2.39,2.338,2.338,0,0,1-2.319,2.319,2.369,2.369,0,0,1-2.39-2.39A2.323,2.323,0,0,1,122.419,40.1Z" transform="translate(-91.677 -30.609)" fill="#5d5086"/>
      <path id="Caminho_50" data-name="Caminho 50" d="M314.465,44.81a2.355,2.355,0,1,1,2.343-2.319A2.408,2.408,0,0,1,314.465,44.81Z" transform="translate(-238.236 -30.61)" fill="#5d5086"/>
    </g>
  </g>
</svg>
