<svg xmlns="http://www.w3.org/2000/svg" width="62" height="61.79" viewBox="0 0 62 61.79">
  <g id="Grupo_29" data-name="Grupo 29" opacity="0.3">
    <path id="Caminho_76" data-name="Caminho 76" d="M24.374,34.155V60.548H0v-20.8c0-11.333,1.4-19.406,4.037-24.53A34.268,34.268,0,0,1,20.8,0l5.589,8.849a19.7,19.7,0,0,0-10.247,8.694c-2.174,3.726-3.416,9.315-3.726,16.612Z" fill="#b4b7f1"/>
    <path id="Caminho_77" data-name="Caminho 77" d="M51.174,34.955V61.348H26.8v-20.8c0-11.333,1.242-19.406,3.881-24.374C34.252,9.339,40,4.216,47.6.8l5.589,9A19.956,19.956,0,0,0,43.1,18.5c-2.174,4.037-3.416,9.47-3.726,16.457h11.8Z" transform="translate(8.807 0.442)" fill="#b4b7f1"/>
  </g>
</svg>
