<?xml version="1.0" encoding="utf-8"?>
<!-- Generator: Adobe Illustrator 19.0.0, SVG Export Plug-In . SVG Version: 6.00 Build 0)  -->
<svg version="1.1" id="Camada_1" xmlns="http://www.w3.org/2000/svg" xmlns:xlink="http://www.w3.org/1999/xlink" x="0px" y="0px"
	 viewBox="0 0 520 120.9" style="enable-background:new 0 0 520 120.9;" xml:space="preserve">
<style type="text/css">
	.st0{fill:none;}
	.st1{fill:#10518B;}
	.st2{fill:#D58336;}
	.st3{fill:#E6B886;}
</style>
<g id="XMLID_8_">
	<path id="path2993" class="st0" d="M248.6,70.5c3.6-0.4,7.1-0.3,10.7-0.1c4.6,0.3,6.7-0.7,5.6,5.1c-1.1,5.7-5.9,9.1-11.3,10.3
		C236.8,89.2,228.9,72.4,248.6,70.5L248.6,70.5z M114.1,47c15-2.5,20.4,13.2,17.3,13.5c-1.7,0.2-19.2,0-22.7,0c-7.9,0-8,0.8-6.7-2.9
		C104.1,51.7,108,48,114.1,47z M197.2,63l0,34.9l20.7,0l0.2-13.8l0.4,1.1c4.4,14.9,29.1,17.1,41.2,9.4l4.9-3.3l0.1,6.5
		c5.9-0.1,13.9,0.1,20,0.2l0.2-26c0.2-0.2,2.5,12.6,17.7,21.7c9.2,5.5,21.1,8.3,31.8,7.7V85.9c-37.9-0.1-35.5-47.8,0-46.5V23.9
		c-15.8-0.2-33.1,4.4-43.2,17.4c-4,5.1-4.5,7.4-6.8,13.3c-1.5-4.2-1-6.3-3.8-10.6c-2-3.1-4.4-5.4-7.7-7.2c-8.8-4.9-15.7-4.1-25.6-4
		l0,15.2c4.4,0.2,8.4-0.1,12.2,2.3c3.7,2.3,5.3,5.5,5,9c-0.7,0.3-12.3-0.8-14.3-0.8c-5.1-0.1-9.6,0.4-14.7,1
		c-8.6,1.1-14.3,5.5-17.4,13.7c-1.2-0.9,6.4-35.2-26.4-40c-9.2-1.3-19.9-0.4-27.8,4.9c-6.3,4.2-10.7,10.8-12.5,20.7
		c-0.4-0.3-1.5-5.6-1.9-6.5c-6.1-15.6-21.5-22.1-37.8-20c-15.3,1.9-28.1,12.6-30.4,27.5l-0.9,6.6c-1.6-1.3-1.9-3.1-6.8-5.9
		c-2.8-1.7-5.9-2.9-9-4C58,54.1,50.9,53.1,44,51.1c-2.7-0.7-6.9-2-8.4-4.5c-1.9-3.1-0.5-7.1,2.5-8.8c6.7-3.8,15.1-1,22.1,0.4l0-16.3
		c-47-7.5-51.9,24.2-41.8,35.5c10.1,11.3,34.9,10.5,42.4,16.4c3.2,2.5,2.6,7.6-0.6,9.9c-3.2,2.4-8.5,2.7-12.3,2.6
		C39.2,86.2,33,83.5,25.8,79c-3.6-2.3-2.3-3.3-8.1,2.6l-7.1,7.5c0.8,2.4,14.6,8.5,17.5,9.4c15.5,5.1,42.8,5.5,52.4-9.9
		c2.1-3.3,2.4-5.7,3.3-9.4c4.3,6.1,4.8,9.8,14.3,14.9c3.5,1.9,6.8,3.2,10.7,3.9c4.7,0.9,9.3,1,13.8,0.8l-0.1-14.4
		c-1.2,0.1-5.5,0-7.8-0.5c-2.3-0.4-4.1-1.2-6.1-2.3c-3.8-2.2-5.7-5.7-6.8-9.8l49.6,0.1l0.2,26.1l21,0l0-35.5c0-3,0.6-5.4,1.2-6.9
		c5.2-10.4,18.1-9,21.7-1C197.1,58,197.2,59.4,197.2,63L197.2,63z"/>
	<path id="path3005" class="st1" d="M218.3,73.1c-1.2-0.9,6.4-35.2-26.4-40c-9.2-1.3-19.9-0.4-27.8,4.9
		c-6.3,4.2-10.7,10.8-12.5,20.7c-0.4-0.3-1.5-5.6-1.9-6.5c-6.1-15.6-21.5-22.1-37.8-20c-15.3,1.9-28.1,12.6-30.4,27.5l-0.9,6.6
		c-1.6-1.3-1.9-3.1-6.8-5.9c-2.8-1.7-5.9-2.9-9-4C58,54.1,50.9,53.1,44,51.1c-2.7-0.7-6.9-2-8.4-4.5c-1.9-3.1-0.5-7.1,2.5-8.8
		c6.7-3.8,15.1-1,22.1,0.4l0-16.3c-47-7.5-51.9,24.2-41.8,35.5c10.1,11.3,34.9,10.5,42.4,16.4c3.2,2.5,2.6,7.6-0.6,9.9
		c-3.2,2.4-8.5,2.7-12.3,2.6C39.2,86.2,33,83.5,25.8,79c-3.6-2.3-2.3-3.3-8.1,2.6l-7.1,7.5c0.8,2.4,14.6,8.5,17.5,9.4
		c15.5,5.1,42.8,5.5,52.4-9.9c2.1-3.3,2.4-5.7,3.3-9.4c4.3,6.1,4.8,9.8,14.3,14.9c3.5,1.9,6.8,3.2,10.7,3.9c4.7,0.9,9.3,1,13.8,0.8
		l-0.1-14.4c-1.2,0.1-5.5,0-7.8-0.5c-2.3-0.4-4.1-1.2-6.1-2.3c-3.8-2.2-5.7-5.7-6.8-9.8l49.6,0.1l0.2,26.1l21,0l0-35.5
		c0-3,0.6-5.4,1.2-6.9c5.2-10.4,18.1-9,21.7-1c1.5,3.3,1.6,4.8,1.6,8.3l0,34.9l20.7,0l0.2-13.8l0.4,1.1c4.4,14.9,29.1,17.1,41.2,9.4
		l4.9-3.3l0.1,6.5c5.9-0.1,13.9,0.1,20,0.2l0.2-26c0.2-0.2,2.5,12.6,17.7,21.7c9.2,5.5,21.1,8.3,31.8,7.7V85.9
		c-37.9-0.1-35.5-47.8,0-46.5V23.9c-15.8-0.2-33.1,4.4-43.2,17.4c-4,5.1-4.5,7.4-6.8,13.3c-1.5-4.2-1-6.3-3.8-10.6
		c-2-3.1-4.4-5.4-7.7-7.2c-8.8-4.9-15.7-4.1-25.6-4l0,15.2c4.4,0.2,8.4-0.1,12.2,2.3c3.7,2.3,5.3,5.5,5,9
		c-0.7,0.3-12.3-0.8-14.3-0.8c-5.1-0.1-9.6,0.4-14.7,1C227.2,60.5,221.5,64.9,218.3,73.1L218.3,73.1z M248.6,70.5
		c3.6-0.4,7.1-0.3,10.7-0.1c4.6,0.3,6.7-0.7,5.6,5.1c-1.1,5.7-5.9,9.1-11.3,10.3C236.8,89.2,228.9,72.4,248.6,70.5L248.6,70.5z
		 M114.1,47c15-2.5,20.4,13.2,17.3,13.5c-1.7,0.2-19.2,0-22.7,0c-7.9,0-8,0.8-6.7-2.9C104.1,51.7,108,48,114.1,47L114.1,47z"/>
	<g id="XMLID_7_">
		<path id="path2995" class="st0" d="M383.4,39c-2.1,3.9-6.1,9-8.6,13.2c-2.9,4.9-4.9,9.5-7.4,14.5c-1.5,3.2,0.7,4,3.1,6.2
			c3.7,3.3,14.7,13.4,18.2,14.5c18-12.1,32.8-20.9,53.5-28.1c15.5-5.4,34.3-9.6,50.8-10.5l19.6-0.9c0.1-1.1-25.8-9-28.4-9.7
			C453,30.2,414.3,30,383.4,39L383.4,39z"/>
		<path id="path2997" class="st0" d="M388.8,87.5c-3.5-1.1-14.5-11.2-18.2-14.5c-1.7-1.6-3.4-2.4-3.6-4c-0.1-0.6,0-1.3,0.5-2.2
			c2.4-5,4.5-9.6,7.4-14.5c2.5-4.2,6.5-9.3,8.6-13.2c-9.6,1.8-23.6,8-32.8,11.9c0.9,2.4,8.1,10.3,10.3,12.5c3.3,3.3,4,4.4,5.1,5.8
			c-5.4,14-8.9,27.7-9,47.8c0.5,0.4,6.2-6.8,7.3-7.9c2.6-2.5,5.1-5.2,7.8-7.6c2.7-2.4,5.3-4.7,8.1-7.1
			C382.8,92.1,386.4,89.8,388.8,87.5L388.8,87.5z"/>
		<path id="path2999" class="st0" d="M395.6,24.7c8.6-0.7,16.5-1.9,25.3-2c8.9-0.1,17.5,0.1,26.3,1.2c3.8,0.5,27.5,3,44.8,10.2
			c0.9-0.8-21-12.2-22.8-13.1c-8.2-3.9-17.5-7.4-26.1-9.9c-7.7-2.2-14-3.6-21.7-5.1c-3.8-0.7-3.9-0.7-6.8,1.6
			C408.3,12.5,400.4,18.8,395.6,24.7L395.6,24.7z"/>
		<path id="path3001" class="st2" d="M388.8,87.5c18-12.1,32.8-20.9,53.5-28.1c15.5-5.4,34.3-9.6,50.8-10.5l19.6-0.9
			c0.1-1.1-25.8-9-28.4-9.7c-31.3-8.1-70-8.3-100.9,0.7c-2.1,3.9-6.1,9-8.6,13.2c-2.9,4.9-4.9,9.5-7.4,14.5
			c-0.4,0.9-0.6,1.6-0.5,2.2c0.2,1.5,1.9,2.4,3.6,4C374.3,76.3,385.3,86.4,388.8,87.5L388.8,87.5z"/>
		<path id="path3003" class="st1" d="M420.8,22.7c8.9-0.1,17.5,0.1,26.3,1.2c3.8,0.5,27.5,3,44.8,10.2c0.9-0.8-21-12.2-22.8-13.1
			c-8.2-3.9-17.5-7.4-26.1-9.9c-7.7-2.2-14-3.6-21.7-5.1c-3.8-0.7-3.9-0.7-6.8,1.6c-6,4.8-14,11.2-18.8,17.1
			C404.2,24,412.1,22.9,420.8,22.7L420.8,22.7z"/>
		<path id="path3007" class="st3" d="M372.1,101.5c2.7-2.4,5.3-4.7,8.1-7.1c2.7-2.3,6.2-4.6,8.7-6.9c-3.5-1.1-14.5-11.2-18.2-14.5
			c-1.7-1.6-3.4-2.4-3.6-4c-0.1-0.6,0-1.3,0.5-2.2c2.4-5,4.5-9.6,7.4-14.5c2.5-4.2,6.5-9.3,8.6-13.2c-9.6,1.8-23.6,8-32.8,11.9
			c0.9,2.4,8.1,10.3,10.3,12.5c3.3,3.3,4,4.4,5.1,5.8c-5.4,14-8.9,27.7-9,47.8c0.5,0.4,6.2-6.8,7.3-7.9
			C366.9,106.6,369.4,103.9,372.1,101.5L372.1,101.5z"/>
	</g>
</g>
</svg>
