<?xml version="1.0" encoding="utf-8"?>
<!-- Generator: Adobe Illustrator 19.0.0, SVG Export Plug-In . SVG Version: 6.00 Build 0)  -->
<svg version="1.1"
	 id="svg8" sodipodi:docname="udemy-logo.svg" inkscape:version="0.92.2 (5c3e80d, 2017-08-06)" inkscape:export-ydpi="96" inkscape:export-xdpi="96" inkscape:export-filename="G:\Users\suitedoalex\sites\udemy-logo-0.png" xmlns:dc="http://purl.org/dc/elements/1.1/" xmlns:cc="http://creativecommons.org/ns#" xmlns:rdf="http://www.w3.org/1999/02/22-rdf-syntax-ns#" xmlns:svg="http://www.w3.org/2000/svg" xmlns:sodipodi="http://sodipodi.sourceforge.net/DTD/sodipodi-0.dtd" xmlns:inkscape="http://www.inkscape.org/namespaces/inkscape"
	 xmlns="http://www.w3.org/2000/svg" xmlns:xlink="http://www.w3.org/1999/xlink" x="0px" y="0px" viewBox="1742 -368 4096 1036"
	 style="enable-background:new 1742 -368 4096 1036;" xml:space="preserve">
<style type="text/css">
	.st0{fill:#645A53;}
	.st1{fill:#EA5252;}
</style>
<sodipodi:namedview  inkscape:current-layer="svg8" inkscape:window-maximized="1" inkscape:window-y="-8" inkscape:window-x="-8" inkscape:measure-end="0,0" inkscape:measure-start="0,0" inkscape:window-height="837" inkscape:window-width="1600" inkscape:pageshadow="2" inkscape:pageopacity="0" inkscape:cy="2337.7036" inkscape:cx="2639.9179" inkscape:zoom="0.11313708" showgrid="false" guidetolerance="10" gridtolerance="10" objecttolerance="10" borderopacity="1" pagecolor="#ffffff" bordercolor="#666666" id="namedview10">
	</sodipodi:namedview>
<g id="g6" transform="matrix(6.3471458,0,0,6.3471458,223.35899,1529.9846)" inkscape:export-ydpi="5.2613177" inkscape:export-xdpi="5.2613177" inkscape:export-filename="G:\Users\suitedoalex\sites\udemy-logo-5.png">
	<g id="logo-coral">
		<g id="Page-1">
			<path id="Fill-1" inkscape:connector-curvature="0" class="st0" d="M804.4-158.8h16.5l28.5-72.3h-16.3l-11.8,36l-12.4-36h-18.2
				l21.7,52.2L804.4-158.8z M722.5-214v37.1h-16.6v-54.3h11.7l3.5,4.7c4.5-3.8,9.4-6,15-6c7.5,0,13.2,2.2,16.6,7.7
				c5.1-4.6,10.4-7.7,17.3-7.7c12.9,0,20.3,6.6,20.3,24.7v30.9h-16.6v-29c0-8.3-3.4-10.7-8.7-10.7c-3.2,0-5.8,0.8-8.7,2.7
				c0.2,1.9,0.3,3.9,0.3,6.1v30.9h-16.6v-29c0-8.3-3.4-10.7-8.8-10.7C727.9-216.6,725.3-215.9,722.5-214L722.5-214z M664.4-209.3
				h21.4c-1.2-7.1-5-10.4-10.6-10.4C670.3-219.8,665.7-216.9,664.4-209.3z M676.3-175.8c-16,0-28.9-7.9-28.9-28.8
				c0-19.5,12.4-27.9,26.8-27.9c17.3,0,25,12.1,25,31.2h-34.9c1.2,9.4,7,12.1,14.6,12.1c7.4,0,13.3-1.8,17.8-4.9l-2.3,13.2
				C690.2-177.6,685-175.8,676.3-175.8L676.3-175.8z M614.4-189.9c3.8,0,6.6-0.6,9.6-2.8v-23.6c-2.6-1.6-5.3-2.3-9.1-2.3
				c-8.1,0-12.7,5.5-12.7,14.6C602.1-195,606.9-189.9,614.4-189.9L614.4-189.9z M627.2-180.9c-4.3,3.3-9.3,5.3-16.3,5.3
				c-14.9,0-25.6-9.2-25.6-28c0-18.8,12.3-28.9,28.1-28.9c3.7,0,7.3,0.5,10.5,1.8v-23h16.6v76.9h-10.5L627.2-180.9z M514.8-209
				v-40.2H532v39.9c0,14.3,6.4,17.3,15.3,17.3c9.6,0,14.5-4.2,14.5-17.3v-39.9h17.4v40.2c0,23.7-10.3,33.6-32.8,33.6
				C525.6-175.4,514.8-184,514.8-209L514.8-209z"/>
			<path id="Fill-4" inkscape:connector-curvature="0" class="st1" d="M470.7-206c-0.7-0.6-1.5-0.9-2.3-1.1
				c-5.1,5.1-11.2,10.4-16.7,13.9c-2.5,1.7-5.7,2.5-7.8,2.5c-4.9,0-7-4.6-7.6-12c-0.8-9.9-1.4-21.7-1.4-40
				c0-18.8-4.3-31.5-15.6-32.5c-0.5,0-1-0.1-1.5-0.1c-7,0-10.3,3.6-14.8,12.6c-3.8,7.8-9.7,19.1-20.7,40.6
				c-9.5,18.5-20.1,34.9-29.1,46.3c-2.5,3.1-4.5,5.3-6.4,6.5c-1.3,0.8-2.5,1.2-3.7,1.2c-3.6,0-6.2-3-7.1-10.1
				c-0.2-1.7-0.3-3.6-0.3-5.7c0-14.5,5.5-38.1,15-72.8c7-25.2,4-42.5-11.2-42.5c0,0,0,0-0.1,0c0,0-0.1,0-0.1,0l0,0
				c-3.4,0-6.3,1.3-9,3.4c-2.7,2.1-5.4,6.7-7.9,12.9c-2.9,7-20.2,41.7-47.8,59.6c-0.3,6.8,3.5,13.6,11.3,14.4
				c7.1,0.7,12.2-2.3,18.7-6.7c-0.5,2.2-0.9,4.2-1.3,6.1c-0.5,2.2-0.9,4.1-1.2,5.6c-0.5,2.3-0.8,3.7-0.9,4.1
				c-0.9,4.1-1.5,8.1-2,11.8c-3.9,34.8,12.2,51.9,31.1,51.9c3.2,0,6.3-0.4,9.4-1.2c20.8-5.3,40.8-29.1,64.5-84
				c-0.4,6-0.4,11.6-0.1,16.7c1.6,31.5,14,40.9,31.6,40.9c13.3,0,25.8-6.9,32.1-15.6c4.6-6.1,6.5-12.8,6.5-18.1
				C474.1-201.1,472.8-204.4,470.7-206"/>
		</g>
	</g>
</g>
</svg>
